<?xml version="1.0" encoding="UTF-8"?>
<svg xmlns="http://www.w3.org/2000/svg" xmlns:xlink="http://www.w3.org/1999/xlink" width="1125pt" height="1124.99995pt" viewBox="0 0 1125 1124.99995" version="1.2">
<defs>
<clipPath id="clip1">
  <path d="M 69.160156 178 L 1120.363281 178 L 1120.363281 902.3125 L 69.160156 902.3125 Z M 69.160156 178 "/>
</clipPath>
<clipPath id="clip2">
  <path d="M 69.160156 178 L 1120.363281 178 L 1120.363281 902.3125 L 69.160156 902.3125 Z M 69.160156 178 "/>
</clipPath>
</defs>
<g id="surface1">
<g clip-path="url(#clip1)" clip-rule="nonzero">
<path style=" stroke:none;fill-rule:nonzero;fill:rgb(79.60968%,92.939758%,86.669922%);fill-opacity:1;" d="M 1110.195312 367.90625 C 1110.046875 366.929688 1109.898438 365.949219 1109.75 364.972656 C 1093.859375 262.957031 1057.703125 185.625 985.554688 179.632812 C 981.28125 179.28125 977.15625 179.046875 973.148438 178.90625 C 972.421875 178.882812 971.683594 178.847656 970.96875 178.828125 C 957.644531 178.480469 945.78125 179.300781 935.164062 181.148438 C 934.421875 181.273438 933.699219 181.410156 932.972656 181.550781 C 910.078125 185.894531 893.078125 195.082031 879.757812 207.492188 C 824.277344 259.203125 832.515625 366.894531 744.171875 414.007812 C 716.730469 428.644531 679.964844 437.4375 629.058594 436.878906 C 349.460938 433.828125 391.402344 636.648438 300.53125 671.621094 C 209.664062 706.59375 160.738281 706.59375 69.859375 902.429688 L 1087.074219 902.429688 C 1087.074219 902.429688 1118.460938 721.457031 1120.285156 540.582031 C 1120.292969 539.804688 1120.292969 539.027344 1120.300781 538.261719 C 1120.816406 479.28125 1118.148438 420.417969 1110.195312 367.90625 Z M 142.507812 753.132812 C 151.035156 753.132812 157.957031 746.207031 157.957031 737.671875 C 157.957031 729.132812 151.035156 722.214844 142.507812 722.214844 C 133.972656 722.214844 127.058594 729.132812 127.058594 737.671875 C 127.058594 746.207031 133.972656 753.132812 142.507812 753.132812 Z M 179.253906 607.128906 L 250.21875 607.128906 C 254.839844 607.128906 258.597656 603.378906 258.597656 598.746094 L 258.597656 460.617188 C 258.597656 455.984375 254.839844 452.230469 250.21875 452.230469 L 179.253906 452.230469 C 174.632812 452.230469 170.886719 455.984375 170.886719 460.617188 L 170.886719 598.746094 C 170.886719 603.378906 174.632812 607.128906 179.253906 607.128906 Z M 362.457031 230.007812 C 365.519531 208.59375 382.117188 193.726562 388.671875 189.359375 C 395.230469 184.988281 406.695312 187.210938 406.695312 187.210938 C 406.695312 187.210938 370.320312 267.167969 368.34375 266.769531 C 366.371094 266.359375 359.40625 251.433594 362.457031 230.007812 "/>
</g>
<path style=" stroke:none;fill-rule:nonzero;fill:rgb(96.469116%,51.368713%,41.958618%);fill-opacity:1;" d="M 408.011719 186.84375 C 408.011719 186.84375 399.414062 173.804688 386.597656 178.75 C 373.78125 183.695312 361.253906 193.023438 355.71875 213.417969 C 350.191406 233.820312 348.734375 255.382812 355.71875 267.917969 C 362.710938 280.445312 375.894531 289.1875 375.894531 289.1875 C 375.894531 289.1875 397.660156 232.363281 398.246094 230.617188 C 398.832031 228.867188 408.011719 186.84375 408.011719 186.84375 Z M 1049.066406 443.613281 L 1031.671875 461.890625 L 1014.28125 443.613281 L 996.878906 461.890625 L 987.550781 452.085938 L 985.832031 450.277344 L 979.484375 443.613281 L 973.148438 450.277344 L 970.96875 452.574219 L 962.09375 461.890625 L 944.699219 443.613281 L 935.164062 453.636719 L 932.972656 455.929688 L 928.039062 461.113281 L 927.308594 461.890625 L 926.09375 460.617188 L 909.90625 443.613281 L 896.757812 457.441406 L 894.796875 459.488281 L 892.511719 461.890625 L 889.941406 459.183594 L 887.753906 456.890625 L 875.121094 443.613281 L 875.121094 549.558594 C 869.453125 562.617188 863.75 574.515625 861.945312 577.542969 C 861.582031 578.152344 861.015625 578.691406 860.367188 579.207031 C 854.355469 583.988281 837.625 584.773438 837.625 584.773438 C 836.71875 584.921875 835.871094 585.128906 835.035156 585.347656 C 826.089844 592.851562 820.222656 604.921875 820.265625 612.375 C 820.351562 626.136719 820.265625 639.1875 835.113281 645.199219 C 835.914062 645.164062 836.726562 645.113281 837.5625 645.050781 L 837.5625 645.058594 C 837.5625 645.058594 837.625 645.050781 837.660156 645.042969 C 845.757812 644.378906 855.042969 642.417969 864.273438 642.285156 C 864.839844 642.277344 865.398438 642.269531 865.949219 642.277344 C 869.035156 642.3125 872.113281 642.582031 875.121094 643.191406 L 875.121094 678.816406 C 874.804688 679.351562 874.804688 680.039062 875.121094 680.5625 L 875.121094 702.738281 L 1049.066406 702.738281 L 1049.066406 679.988281 C 1048.90625 679.988281 1048.75 679.988281 1048.59375 679.988281 C 1048.59375 679.628906 1048.472656 679.273438 1048.246094 678.984375 C 1048.515625 678.992188 1048.792969 678.992188 1049.066406 678.992188 Z M 529.925781 255.949219 C 529.925781 255.949219 525.855469 264.691406 517.117188 261.777344 C 508.375 258.855469 494.398438 244.871094 494.398438 244.871094 C 494.398438 244.871094 499.636719 260.609375 479.246094 259.449219 C 458.863281 258.28125 443.136719 244.289062 443.136719 244.289062 C 443.441406 255.472656 441.730469 268.066406 439.046875 280.59375 C 437.652344 287.109375 435.996094 293.59375 434.21875 299.855469 C 431.984375 294.855469 428.75 290.328125 424.480469 286.699219 C 424.183594 286.4375 423.878906 286.210938 423.570312 285.96875 C 419.796875 283 415.707031 281.265625 412.003906 282.957031 C 411.664062 283.113281 411.332031 283.308594 411.019531 283.542969 C 410.511719 283.917969 410.042969 284.398438 409.597656 284.945312 C 405.324219 290.242188 404.042969 303.300781 406.730469 315.148438 C 408.226562 321.734375 410.949219 327.925781 415.070312 332.191406 C 416.738281 333.917969 418.636719 335.324219 420.765625 336.308594 C 421.097656 336.464844 421.445312 336.605469 421.785156 336.738281 C 421.644531 337.113281 421.496094 337.488281 421.359375 337.84375 C 418.035156 346.386719 415.683594 351.679688 415.683594 351.679688 L 416.824219 388.429688 L 416.964844 392.730469 L 396.640625 397.320312 C 396.640625 397.320312 430.675781 444.269531 475.496094 443.929688 C 480.824219 443.894531 486.289062 443.230469 491.878906 441.695312 C 516.796875 434.855469 508.171875 409.949219 501.441406 396.628906 C 498.851562 391.492188 496.542969 388.074219 496.542969 388.074219 L 483.335938 386.335938 L 483.703125 382.070312 L 484.050781 377.9375 C 484.050781 377.9375 484.050781 377.9375 484.058594 377.929688 C 484.136719 377.839844 484.214844 377.753906 484.304688 377.667969 C 484.425781 377.535156 484.496094 377.359375 484.539062 377.1875 C 484.554688 377.222656 484.574219 377.246094 484.582031 377.28125 C 499.988281 377.257812 514.265625 374.472656 521.773438 371.933594 C 533.097656 368.105469 535.191406 308.152344 535.25 265.816406 C 534.144531 268.886719 533.273438 270.667969 533.273438 270.667969 Z M 831.234375 780.105469 C 831.234375 780.105469 837.160156 787.117188 835.007812 792.515625 C 832.847656 797.90625 813.972656 789.8125 813.972656 789.8125 C 813.972656 789.8125 807.003906 795.683594 799.699219 794.367188 C 792.402344 793.050781 775.191406 793.050781 770.3125 792.515625 C 766.640625 792.105469 751.992188 784.054688 741.296875 778.59375 C 737.773438 776.804688 734.671875 775.289062 732.535156 774.425781 C 725.246094 771.46875 711.367188 755.128906 707.226562 750.128906 C 693.503906 715.648438 714.765625 705.574219 714.765625 705.574219 L 729.839844 709.953125 C 729.839844 709.953125 759.5 702.511719 769.472656 706.367188 C 779.457031 710.222656 791.320312 719.269531 805.609375 720.140625 C 819.90625 721.011719 818.828125 728.835938 812.890625 732.613281 C 807.363281 736.136719 784.234375 735.207031 781.15625 735.058594 L 781.085938 735.257812 C 783.851562 737.359375 806.351562 754.429688 813.429688 757.972656 C 820.519531 761.523438 829.988281 770.777344 831.121094 778.59375 C 831.191406 779.109375 831.234375 779.605469 831.234375 780.105469 "/>
<path style=" stroke:none;fill-rule:nonzero;fill:rgb(0%,70.199585%,53.329468%);fill-opacity:1;" d="M 921.464844 389.53125 L 921.464844 207.492188 L 879.757812 207.492188 C 824.277344 259.203125 832.515625 366.894531 744.171875 414.007812 L 921.464844 414.007812 Z M 740.179688 356.878906 L 582.148438 356.878906 L 582.148438 292.710938 L 740.179688 292.710938 Z M 769.324219 279.199219 L 611.292969 279.199219 L 611.292969 215.023438 L 769.324219 215.023438 Z M 176.535156 464.296875 L 176.699219 497.324219 C 176.707031 500.007812 178.898438 502.171875 181.589844 502.164062 L 250.203125 501.824219 C 252.898438 501.816406 255.058594 499.625 255.050781 496.929688 L 254.882812 463.914062 C 254.875 461.21875 252.6875 459.046875 249.992188 459.0625 L 181.382812 459.402344 C 178.6875 459.410156 176.515625 461.601562 176.535156 464.296875 Z M 232.304688 444.554688 L 232.339844 452.230469 L 253.261719 452.136719 L 253.21875 444.453125 Z M 254.988281 593.679688 L 254.953125 586.117188 C 254.9375 583.402344 252.730469 581.214844 250.019531 581.230469 L 240.902344 581.273438 C 238.1875 581.285156 236.011719 583.492188 236.019531 586.203125 L 236.054688 593.777344 C 236.070312 596.488281 238.277344 598.667969 240.988281 598.660156 L 250.105469 598.617188 C 252.820312 598.597656 255.007812 596.390625 254.988281 593.679688 Z M 235.941406 570.273438 C 235.949219 572.988281 238.164062 575.175781 240.875 575.160156 L 249.992188 575.117188 C 252.707031 575.109375 254.894531 572.890625 254.875 570.179688 L 254.839844 562.617188 C 254.824219 559.902344 252.617188 557.714844 249.90625 557.730469 L 240.789062 557.773438 C 238.074219 557.792969 235.886719 560 235.90625 562.710938 Z M 235.828125 546.785156 C 235.835938 549.488281 238.050781 551.675781 240.753906 551.667969 L 249.878906 551.625 C 252.589844 551.605469 254.769531 549.402344 254.761719 546.6875 L 254.726562 539.117188 C 254.710938 536.402344 252.503906 534.222656 249.792969 534.230469 L 240.675781 534.273438 C 237.960938 534.292969 235.773438 536.5 235.78125 539.210938 Z M 235.703125 523.28125 C 235.722656 525.996094 237.929688 528.183594 240.640625 528.167969 L 249.757812 528.125 C 252.46875 528.105469 254.65625 525.898438 254.640625 523.1875 L 254.605469 515.625 C 254.597656 512.910156 252.382812 510.722656 249.679688 510.738281 L 240.550781 510.78125 C 237.839844 510.792969 235.660156 513.007812 235.667969 515.71875 Z M 225.816406 593.820312 L 225.785156 586.257812 C 225.765625 583.542969 223.558594 581.355469 220.847656 581.371094 L 211.730469 581.414062 C 209.019531 581.433594 206.832031 583.640625 206.847656 586.351562 L 206.882812 593.914062 C 206.898438 596.628906 209.105469 598.816406 211.816406 598.800781 L 220.9375 598.757812 C 223.648438 598.746094 225.835938 596.53125 225.816406 593.820312 Z M 206.769531 570.421875 C 206.777344 573.136719 208.992188 575.316406 211.695312 575.308594 L 220.824219 575.265625 C 223.535156 575.246094 225.714844 573.039062 225.703125 570.328125 L 225.671875 562.765625 C 225.652344 560.050781 223.445312 557.863281 220.734375 557.871094 L 211.617188 557.914062 C 208.90625 557.933594 206.71875 560.140625 206.726562 562.851562 Z M 206.648438 546.921875 C 206.664062 549.636719 208.871094 551.824219 211.582031 551.808594 L 220.699219 551.765625 C 223.410156 551.753906 225.601562 549.539062 225.589844 546.828125 L 225.546875 539.265625 C 225.539062 536.550781 223.324219 534.363281 220.613281 534.378906 L 211.496094 534.421875 C 208.78125 534.441406 206.601562 536.648438 206.613281 539.359375 Z M 206.535156 523.429688 C 206.550781 526.136719 208.757812 528.324219 211.46875 528.316406 L 220.585938 528.273438 C 223.296875 528.253906 225.488281 526.046875 225.46875 523.335938 L 225.433594 515.761719 C 225.417969 513.050781 223.210938 510.871094 220.5 510.878906 L 211.382812 510.921875 C 208.667969 510.941406 206.480469 513.148438 206.5 515.859375 Z M 196.648438 593.96875 L 196.613281 586.40625 C 196.59375 583.691406 194.390625 581.5 191.679688 581.511719 L 182.558594 581.554688 C 179.847656 581.570312 177.660156 583.777344 177.667969 586.5 L 177.710938 594.0625 C 177.71875 596.777344 179.933594 598.964844 182.636719 598.949219 L 191.765625 598.90625 C 194.476562 598.886719 196.65625 596.679688 196.648438 593.96875 Z M 177.589844 570.5625 C 177.605469 573.277344 179.8125 575.464844 182.523438 575.449219 L 191.644531 575.40625 C 194.355469 575.394531 196.542969 573.179688 196.535156 570.46875 L 196.492188 562.902344 C 196.480469 560.191406 194.265625 558 191.566406 558.019531 L 182.4375 558.0625 C 179.726562 558.078125 177.546875 560.285156 177.554688 563 Z M 177.476562 547.070312 C 177.492188 549.777344 179.699219 551.964844 182.410156 551.957031 L 191.53125 551.914062 C 194.242188 551.894531 196.429688 549.6875 196.410156 546.976562 L 196.378906 539.402344 C 196.359375 536.699219 194.152344 534.511719 191.441406 534.519531 L 182.324219 534.5625 C 179.613281 534.578125 177.425781 536.785156 177.441406 539.5 Z M 177.363281 523.570312 C 177.371094 526.285156 179.585938 528.472656 182.296875 528.457031 L 191.417969 528.414062 C 194.128906 528.394531 196.308594 526.1875 196.296875 523.476562 L 196.265625 515.910156 C 196.246094 513.199219 194.039062 511.007812 191.328125 511.027344 L 182.210938 511.070312 C 179.5 511.089844 177.308594 513.296875 177.328125 516.007812 Z M 161.007812 456.933594 L 160.980469 452.171875 C 160.929688 442.164062 168.828125 434 178.730469 433.582031 C 178.957031 433.574219 179.183594 433.546875 179.410156 433.546875 L 248.574219 433.207031 C 248.800781 433.207031 249.027344 433.234375 249.253906 433.234375 C 259.164062 433.546875 267.132812 441.640625 267.1875 451.648438 L 267.910156 598.941406 C 267.960938 609.179688 259.714844 617.519531 249.480469 617.5625 L 180.316406 617.902344 C 170.09375 617.957031 161.757812 609.703125 161.714844 599.472656 L 161.625 583.4375 Z M 257.699219 760.039062 L 5.527344 760.039062 L 5.527344 827.878906 C 5.527344 839.0625 14.585938 848.117188 25.753906 848.117188 L 259.253906 848.117188 C 261.152344 848.117188 262.976562 847.839844 264.71875 847.351562 C 273.226562 844.960938 279.480469 837.164062 279.480469 827.878906 L 279.480469 760.039062 Z M 201.878906 379.898438 L 201.878906 378.320312 L 201.703125 378.320312 L 201.703125 336.554688 L 201.851562 336.554688 C 201.6875 331.546875 197.605469 327.535156 192.558594 327.535156 L 170.886719 327.535156 L 170.886719 389.222656 L 192.558594 389.222656 C 197.710938 389.222656 201.878906 385.046875 201.878906 379.898438 Z M 152.464844 737.671875 C 152.464844 732.167969 148.007812 727.703125 142.507812 727.703125 C 136.996094 727.703125 132.542969 732.167969 132.542969 737.671875 C 132.542969 743.179688 136.996094 747.644531 142.507812 747.644531 C 148.007812 747.644531 152.464844 743.179688 152.464844 737.671875 Z M 279.382812 725.453125 C 279.445312 726.0625 279.480469 726.683594 279.480469 727.3125 L 279.480469 757.851562 L 5.527344 757.851562 L 5.527344 727.3125 C 5.527344 716.136719 14.585938 707.074219 25.753906 707.074219 L 259.253906 707.074219 C 268.765625 707.074219 276.714844 713.648438 278.878906 722.503906 C 279.113281 723.464844 279.296875 724.441406 279.382812 725.453125 Z M 701.726562 782.640625 L 702.414062 778.59375 L 707.226562 750.128906 L 714.765625 705.574219 L 715.34375 702.125 L 715.707031 699.953125 L 715.769531 699.597656 C 715.769531 699.597656 647.167969 680.207031 589.722656 661.074219 C 588.710938 660.742188 587.707031 660.402344 586.707031 660.070312 C 586.015625 659.84375 585.335938 659.609375 584.65625 659.382812 L 599.121094 633.089844 C 631.003906 659.707031 658.527344 680.398438 665.089844 681.914062 C 681.046875 685.613281 834.101562 672.207031 834.101562 672.207031 C 834.101562 672.207031 834.703125 661.660156 835.113281 645.199219 C 835.503906 629.367188 835.714844 608.0625 835.035156 585.347656 C 835.035156 585.199219 835.027344 585.050781 835.027344 584.894531 L 703.894531 585.4375 C 703.894531 585.488281 703.914062 585.523438 703.90625 585.566406 C 703.84375 585.75 703.660156 585.863281 703.476562 585.847656 L 703.433594 585.847656 C 701.339844 585.671875 699.195312 585.734375 697.15625 586.0625 C 695.117188 586.414062 693.136719 587.023438 691.375 588.007812 C 689.605469 588.96875 688.011719 590.261719 686.738281 591.855469 C 685.371094 593.398438 684.417969 595.285156 683.417969 597.175781 L 683.390625 597.230469 C 683.261719 597.464844 682.953125 597.5625 682.71875 597.429688 C 682.511719 597.316406 682.414062 597.074219 682.476562 596.855469 C 682.78125 595.789062 683.085938 594.699219 683.511719 593.652344 C 684.042969 592.660156 684.480469 591.585938 685.203125 590.6875 C 686.460938 588.75 688.308594 587.199219 690.347656 586.089844 C 692.054688 585.175781 693.921875 584.605469 695.8125 584.355469 C 695.5 584.285156 695.203125 584.179688 694.890625 584.128906 C 693.484375 583.9375 692.074219 583.847656 690.644531 583.917969 C 687.765625 584.058594 684.863281 584.667969 681.960938 585.382812 L 681.933594 585.390625 C 681.707031 585.445312 681.480469 585.3125 681.421875 585.085938 C 681.386719 584.902344 681.457031 584.730469 681.59375 584.632812 C 682.929688 583.742188 684.367188 583.132812 685.859375 582.644531 C 687.355469 582.148438 688.925781 581.851562 690.523438 581.738281 C 692.125 581.667969 693.765625 581.789062 695.335938 582.242188 C 696.675781 582.644531 697.914062 583.34375 698.988281 584.214844 C 700.410156 584.277344 701.804688 584.492188 703.164062 584.902344 C 699.957031 580.289062 676.042969 546 647.445312 508.21875 C 646.992188 507.632812 646.546875 507.039062 646.09375 506.445312 C 628.023438 482.625 608.195312 457.597656 590.601562 437.867188 C 574.003906 419.242188 559.382812 405.320312 550.097656 401.59375 C 543.402344 398.917969 536.953125 397.234375 530.894531 396.265625 C 528.886719 394.957031 526.8125 393.742188 524.683594 392.625 L 501.015625 384.402344 C 495.410156 383.230469 489.613281 382.480469 483.703125 382.070312 L 483.335938 386.335938 L 496.542969 388.074219 C 496.542969 388.074219 498.851562 391.492188 501.441406 396.628906 C 508.171875 409.949219 516.796875 434.855469 491.878906 441.695312 C 486.289062 443.230469 480.824219 443.894531 475.496094 443.929688 C 430.675781 444.269531 396.640625 397.320312 396.640625 397.320312 L 416.964844 392.730469 L 416.824219 388.429688 C 407.582031 390.480469 398.8125 392.820312 390.835938 395.171875 C 390.84375 395.191406 391.59375 395.992188 392.910156 397.441406 L 390.609375 395.242188 C 377.636719 399.097656 366.757812 402.988281 359.476562 405.78125 C 353.101562 408.222656 347.679688 412.628906 343.949219 418.34375 C 336.773438 429.324219 331.019531 441.023438 326.644531 453.140625 C 315.703125 471.03125 310.679688 495.5 316.863281 518.964844 C 317.4375 529.929688 319.050781 540.886719 321.804688 551.6875 C 324.316406 561.507812 326.84375 571.984375 329.257812 582.863281 C 332.652344 598.144531 333.148438 621.847656 332.101562 648.121094 C 331.664062 659.105469 330.960938 670.53125 330.078125 681.984375 L 328.40625 703.191406 C 328.039062 711.609375 326.566406 723.671875 324.707031 736.261719 C 322.371094 754.519531 319.242188 772.664062 315.386719 790.648438 C 315.152344 791.914062 315.003906 792.628906 315.003906 792.628906 L 314.472656 794.941406 C 313.480469 799.441406 312.425781 803.925781 311.335938 808.402344 L 310.609375 811.5 C 310.609375 811.5 310.59375 811.507812 310.585938 811.507812 C 307.847656 822.488281 304.847656 833.402344 301.527344 844.226562 C 298.066406 855.5 294.570312 868.128906 291.78125 880.917969 L 326.984375 880.59375 L 349.152344 880.523438 L 349.320312 881.867188 L 569.496094 881.867188 L 571.902344 756.621094 C 622.382812 769.078125 673.523438 778 693.242188 781.265625 C 698.664062 782.164062 701.726562 782.640625 701.726562 782.640625 Z M 693.242188 820.824219 L 620.542969 820.824219 L 620.542969 881.335938 L 895.3125 881.335938 L 895.3125 820.824219 Z M 524.441406 392.503906 L 501.023438 384.402344 C 509.351562 386.128906 517.222656 388.78125 524.441406 392.503906 "/>
<g clip-path="url(#clip2)" clip-rule="nonzero">
<path style=" stroke:none;fill-rule:nonzero;fill:rgb(15.689087%,35.688782%,32.548523%);fill-opacity:1;" d="M 627.210938 275.726562 L 753.398438 275.726562 C 755.238281 270.273438 759.542969 265.972656 764.992188 264.132812 L 764.992188 229.285156 C 759.542969 227.445312 755.238281 223.132812 753.398438 217.691406 L 627.210938 217.691406 C 625.371094 223.132812 621.066406 227.445312 615.625 229.285156 L 615.625 264.132812 C 621.066406 265.972656 625.371094 270.273438 627.210938 275.726562 Z M 628.195312 281.640625 L 609.714844 281.640625 L 609.714844 211.777344 L 770.902344 211.777344 L 770.902344 281.640625 Z M 661.167969 303.726562 C 649.539062 303.726562 640.105469 313.15625 640.105469 324.792969 C 640.105469 336.429688 649.539062 345.863281 661.167969 345.863281 C 672.796875 345.863281 682.222656 336.429688 682.222656 324.792969 C 682.222656 313.15625 672.796875 303.726562 661.167969 303.726562 Z M 437.746094 490.316406 C 412.605469 451.515625 375.894531 400.09375 375.894531 400.09375 L 390.609375 395.242188 L 390.828125 395.171875 L 390.835938 395.171875 C 390.90625 395.261719 427.773438 434.679688 455.035156 477.617188 C 465.636719 494.3125 474.78125 511.542969 479.753906 527.199219 L 487.554688 526.066406 L 574.726562 513.410156 C 574.726562 513.410156 557.203125 478.4375 538.660156 444.609375 C 528.375 425.828125 517.78125 407.402344 509.699219 395.515625 C 506.28125 390.488281 503.316406 386.625 501.015625 384.402344 L 501.023438 384.402344 L 524.441406 392.503906 L 524.632812 392.566406 C 524.632812 392.566406 524.660156 392.589844 524.683594 392.625 C 524.859375 392.878906 525.636719 393.945312 526.910156 395.722656 C 531.816406 402.597656 544.101562 419.992188 557.894531 441.25 C 575.503906 468.386719 595.574219 501.804688 605.914062 527.601562 C 606.183594 528.289062 606.453125 528.96875 606.714844 529.652344 C 607.75 532.320312 608.675781 534.910156 609.46875 537.398438 C 617.714844 563.113281 609.660156 599.53125 599.121094 633.089844 C 596.078125 642.765625 592.84375 652.203125 589.722656 661.074219 C 588.710938 660.742188 587.707031 660.402344 586.707031 660.070312 C 561.144531 651.503906 538.101562 643.054688 524.773438 636.5 C 524.867188 636.300781 524.859375 636.066406 524.683594 635.917969 C 522.75 634.25 520.585938 632.726562 518.148438 631.800781 C 517.160156 631.390625 516.140625 631.058594 515.113281 630.769531 C 514.652344 630.394531 514.222656 630.019531 513.902344 629.671875 C 511.746094 627.367188 508.921875 623.347656 505.539062 618.007812 C 505.15625 617.40625 504.773438 616.777344 504.371094 616.140625 C 493.5625 598.746094 477.597656 569.078125 459.910156 538.042969 C 459.917969 538.035156 459.9375 538.042969 459.945312 538.035156 C 460.171875 537.886719 460.230469 537.582031 460.082031 537.34375 C 460.003906 537.242188 459.925781 537.125 459.847656 537.011719 C 460.597656 534.28125 460.929688 532.25 460.753906 531.0625 C 460.023438 526.003906 450.335938 509.746094 437.746094 490.316406 Z M 690.304688 225.636719 C 678.675781 225.636719 669.25 235.078125 669.25 246.714844 C 669.25 258.351562 678.675781 267.78125 690.304688 267.78125 C 701.933594 267.78125 711.367188 258.351562 711.367188 246.714844 C 711.367188 235.078125 701.933594 225.636719 690.304688 225.636719 Z M 598.074219 353.816406 L 724.261719 353.816406 C 726.101562 348.363281 730.398438 344.054688 735.847656 342.214844 L 735.847656 307.375 C 730.398438 305.535156 726.101562 301.226562 724.261719 295.773438 L 598.074219 295.773438 C 596.226562 301.226562 591.929688 305.535156 586.480469 307.375 L 586.480469 342.214844 C 591.929688 344.054688 596.226562 348.363281 598.074219 353.816406 Z M 599.050781 359.730469 L 580.570312 359.730469 L 580.570312 289.859375 L 741.757812 289.859375 L 741.757812 359.730469 Z M 291.683594 799.84375 C 293.140625 800.339844 295.652344 799.964844 298.492188 799.179688 C 299.722656 797.15625 300.863281 795.222656 301.847656 793.433594 C 313.898438 771.546875 324.777344 718.710938 327.714844 703.679688 C 325.789062 705.878906 318.527344 714.523438 314.515625 724.011719 C 309.851562 735.023438 286.550781 798.097656 291.683594 799.84375 Z M 245.078125 872.847656 C 245.078125 872.847656 253.828125 861.804688 264.71875 847.351562 C 273.226562 844.960938 279.480469 837.164062 279.480469 827.878906 L 279.480469 827.332031 C 282.320312 823.378906 285.109375 819.429688 287.753906 815.582031 C 284.675781 815.390625 281.789062 814.707031 279.480469 813.296875 L 279.480469 772.871094 C 280.0625 771.78125 280.664062 770.683594 281.308594 769.539062 C 290.75 752.894531 301.222656 715.804688 309 696.78125 C 302.984375 700.992188 297.238281 705.703125 291.851562 711.058594 C 287.289062 715.605469 283.15625 720.429688 279.382812 725.453125 C 279.296875 724.441406 279.113281 723.464844 278.878906 722.503906 C 282.371094 717.976562 286.175781 713.632812 290.316406 709.515625 C 296.636719 703.21875 303.445312 697.816406 310.59375 693.054688 C 312.257812 689.375 313.777344 686.730469 315.09375 685.605469 C 321.324219 680.335938 327.402344 681.671875 329.363281 682.316406 C 329.597656 682.203125 329.84375 682.097656 330.078125 681.984375 C 330.0625 682.175781 330.042969 682.367188 330.035156 682.558594 L 332.546875 683.25 L 384.191406 697.269531 C 384.191406 697.269531 392.203125 681.90625 403.03125 660.5 C 403.46875 659.644531 403.902344 658.789062 404.339844 657.917969 C 405.046875 656.523438 405.761719 655.109375 406.484375 653.667969 C 406.859375 654.15625 407.21875 654.664062 407.582031 655.152344 C 407.738281 655.363281 408.035156 655.40625 408.253906 655.265625 C 408.273438 655.246094 408.273438 655.230469 408.28125 655.222656 C 408.664062 655.683594 409.046875 656.15625 409.429688 656.617188 C 409.9375 657.246094 410.460938 657.863281 410.972656 658.484375 C 432.683594 684.664062 456.710938 709.707031 479.046875 724.476562 C 479.753906 724.9375 480.449219 725.375 481.148438 725.820312 C 486.953125 729.507812 492.644531 732.5 498.136719 734.578125 C 518.488281 742.296875 543.117188 749.414062 568.101562 755.679688 C 569.367188 755.992188 570.640625 756.304688 571.902344 756.621094 C 571.535156 806.316406 573.804688 874.472656 574.019531 880.839844 L 573.976562 880.839844 L 538.738281 880.535156 L 503.449219 880.429688 L 432.855469 880.246094 L 364.515625 880.464844 L 362.273438 880.472656 L 361.777344 880.472656 L 377.375 721.464844 L 328.40625 703.191406 C 328.039062 711.609375 326.566406 723.671875 324.707031 736.261719 C 321.335938 759.160156 316.722656 783.671875 315.386719 790.648438 C 315.152344 791.914062 315.003906 792.628906 315.003906 792.628906 L 314.472656 794.941406 L 311.335938 808.402344 L 310.609375 811.5 C 310.609375 811.5 310.59375 811.507812 310.585938 811.507812 C 310.4375 811.566406 308.109375 812.433594 304.683594 813.367188 C 289.261719 840.652344 263.714844 878.675781 263.714844 878.675781 Z M 161.625 583.4375 L 161.007812 456.933594 L 152.464844 460.589844 L 153.054688 579.863281 Z M 253.261719 452.136719 L 253.21875 444.453125 L 232.304688 444.554688 L 232.339844 452.230469 Z M 973.148438 702.738281 L 970.96875 702.738281 L 970.96875 881.335938 L 935.164062 881.335938 L 935.164062 702.738281 L 932.972656 702.738281 L 932.972656 778.59375 L 933.304688 778.59375 L 933.304688 881.335938 L 574.527344 881.335938 C 574.527344 881.605469 574.308594 881.824219 574.039062 881.824219 L 538.738281 882.128906 L 503.449219 882.234375 L 432.855469 882.417969 L 363.523438 882.191406 L 361.003906 882.191406 L 326.984375 882.070312 L 291.683594 881.753906 C 291.457031 881.746094 291.273438 881.5625 291.273438 881.335938 L 244.378906 881.335938 C 243.726562 873.503906 243.089844 861.917969 243.394531 848.117188 L 241.230469 848.117188 C 240.917969 861.875 241.539062 873.441406 242.191406 881.335938 L 79.851562 881.335938 L 79.5 882.078125 L 69.859375 902.429688 L 1087.074219 902.429688 L 1087.074219 902.410156 L 1090.476562 881.34375 C 1090.476562 881.335938 1090.476562 881.335938 1090.476562 881.335938 L 973.148438 881.335938 Z M 1101.644531 535.441406 C 1088.515625 534.859375 1070.921875 536.960938 1049.066406 545.726562 L 1049.066406 548.074219 C 1070.851562 539.210938 1088.339844 537.066406 1101.355469 537.617188 C 1108.609375 537.921875 1114.90625 539.0625 1120.285156 540.582031 C 1120.292969 539.804688 1120.292969 539.027344 1120.300781 538.261719 C 1114.972656 536.820312 1108.757812 535.75 1101.644531 535.441406 Z M 646.09375 506.445312 C 646.546875 507.039062 646.992188 507.632812 647.445312 508.21875 C 659.824219 502.433594 672.710938 497.015625 685.980469 492.054688 C 748.28125 468.738281 813.78125 457.300781 875.121094 458.617188 L 875.121094 456.429688 C 813.507812 455.121094 747.746094 466.597656 685.210938 490.003906 C 671.742188 495.046875 658.664062 500.558594 646.09375 506.445312 Z M 928.039062 461.113281 C 927.882812 460.964844 927.699219 460.84375 927.464844 460.808594 C 927.011719 460.746094 926.546875 460.683594 926.09375 460.617188 L 927.308594 461.890625 Z M 1110.195312 367.90625 C 1110.046875 366.929688 1109.898438 365.949219 1109.75 364.972656 C 1081.941406 399.929688 1041.367188 435.710938 985.832031 450.277344 L 987.550781 452.085938 C 1042.210938 437.402344 1082.394531 402.40625 1110.195312 367.90625 Z M 973.148438 178.90625 C 972.421875 178.882812 971.683594 178.847656 970.96875 178.828125 L 970.96875 452.574219 L 973.148438 450.277344 Z M 894.796875 459.488281 L 896.757812 457.441406 C 893.769531 457.222656 890.769531 457.039062 887.753906 456.890625 L 889.941406 459.183594 C 891.5625 459.28125 893.183594 459.386719 894.796875 459.488281 Z M 935.164062 181.148438 C 934.421875 181.273438 933.699219 181.410156 932.972656 181.550781 L 932.972656 455.929688 L 935.164062 453.636719 Z M 715.707031 699.953125 C 768.828125 700.511719 831.058594 675.730469 875.121094 654.070312 L 875.121094 656.488281 C 830.816406 678.179688 768.574219 702.789062 715.34375 702.125 L 715.707031 699.953125 "/>
</g>
<path style=" stroke:none;fill-rule:nonzero;fill:rgb(11.369324%,10.5896%,9.799194%);fill-opacity:1;" d="M 208.355469 378.320312 L 208.355469 336.554688 L 201.703125 336.554688 L 201.703125 378.320312 Z M 192.722656 707.074219 L 192.722656 674.140625 C 192.722656 672.9375 191.738281 671.960938 190.535156 671.960938 L 94.46875 671.960938 C 93.265625 671.960938 92.292969 672.9375 92.292969 674.140625 L 92.292969 707.074219 L 96.660156 707.074219 L 96.660156 676.332031 L 188.355469 676.332031 L 188.355469 707.074219 Z M 179.410156 433.546875 L 248.574219 433.207031 C 248.800781 433.207031 249.027344 433.234375 249.253906 433.234375 L 249.226562 427.796875 C 249.21875 426.820312 248.425781 426.035156 247.457031 426.046875 L 180.457031 426.375 C 179.488281 426.375 178.695312 427.171875 178.707031 428.148438 L 178.730469 433.582031 C 178.957031 433.574219 179.183594 433.546875 179.410156 433.546875 Z M 477.964844 272.613281 C 478.175781 272.671875 478.410156 272.578125 478.523438 272.375 C 478.652344 272.140625 478.566406 271.835938 478.332031 271.707031 C 477.476562 271.234375 476.613281 270.773438 475.707031 270.386719 C 474.765625 270.089844 473.839844 269.699219 472.855469 269.550781 C 470.910156 269.078125 468.835938 269.15625 466.859375 269.488281 C 464.871094 269.855469 462.960938 270.613281 461.296875 271.722656 C 459.621094 272.8125 458.15625 274.15625 457.050781 275.832031 C 456.945312 275.980469 456.953125 276.1875 457.074219 276.328125 C 457.222656 276.503906 457.484375 276.527344 457.660156 276.382812 L 457.695312 276.347656 C 459.082031 275.175781 460.617188 274.121094 462.21875 273.320312 C 463.832031 272.535156 465.515625 271.914062 467.257812 271.636719 C 468.992188 271.339844 470.773438 271.234375 472.558594 271.46875 C 474.355469 271.609375 476.097656 272.132812 477.914062 272.605469 Z M 468.90625 280.523438 C 467.730469 280.523438 466.65625 281.238281 465.882812 282.382812 C 465.078125 283.578125 464.574219 285.21875 464.574219 287.050781 C 464.574219 290.652344 466.519531 293.574219 468.90625 293.574219 C 471.285156 293.574219 473.222656 290.660156 473.230469 287.058594 C 473.230469 287.058594 473.230469 287.050781 473.230469 287.050781 C 473.230469 283.445312 471.296875 280.523438 468.90625 280.523438 Z M 515.652344 293.574219 C 518.042969 293.574219 519.976562 290.652344 519.976562 287.050781 C 519.976562 283.445312 518.042969 280.523438 515.652344 280.523438 C 513.253906 280.523438 511.320312 283.445312 511.320312 287.050781 C 511.320312 290.652344 513.253906 293.574219 515.652344 293.574219 Z M 500.109375 322.441406 C 497.910156 322.378906 495.664062 321.855469 493.535156 321.175781 L 493.507812 321.164062 C 493.273438 321.085938 493.011719 321.191406 492.90625 321.425781 C 492.792969 321.671875 492.898438 321.96875 493.144531 322.082031 C 495.3125 323.085938 497.589844 323.746094 499.996094 324.035156 C 502.367188 324.238281 505.09375 324.042969 507.214844 322.28125 C 509.375 320.554688 510.117188 317.796875 510.152344 315.339844 C 510.1875 312.816406 509.578125 310.425781 508.773438 308.1875 C 507.9375 305.953125 506.898438 303.839844 505.863281 301.773438 C 504.878906 299.742188 503.683594 297.597656 503.335938 295.710938 C 503.167969 293.707031 503.65625 291.332031 504.09375 289.132812 C 504.519531 286.882812 505.105469 284.652344 505.671875 282.417969 C 505.722656 282.214844 505.617188 282 505.417969 281.921875 C 505.199219 281.832031 504.964844 281.9375 504.878906 282.15625 C 504.023438 284.328125 503.316406 286.542969 502.664062 288.785156 C 502.097656 291.070312 501.453125 293.269531 501.496094 295.886719 C 501.632812 297.273438 502.085938 298.390625 502.558594 299.488281 C 503.019531 300.585938 503.527344 301.625 504.023438 302.671875 C 505.015625 304.757812 505.984375 306.824219 506.726562 308.9375 C 507.492188 311.03125 508.070312 313.183594 508.058594 315.304688 C 508.078125 317.414062 507.40625 319.535156 505.957031 320.816406 C 504.527344 322.167969 502.28125 322.527344 500.109375 322.441406 Z M 525.855469 272.535156 L 525.886719 272.542969 C 526.070312 272.585938 526.261719 272.507812 526.359375 272.34375 C 526.472656 272.140625 526.402344 271.886719 526.195312 271.773438 C 525.355469 271.304688 524.492188 270.832031 523.585938 270.449219 C 522.652344 270.144531 521.738281 269.75 520.753906 269.601562 C 518.808594 269.105469 516.75 269.175781 514.765625 269.488281 C 512.777344 269.839844 510.851562 270.589844 509.175781 271.6875 C 507.492188 272.769531 506.011719 274.09375 504.886719 275.777344 C 504.765625 275.960938 504.773438 276.207031 504.921875 276.371094 C 505.09375 276.582031 505.410156 276.609375 505.617188 276.433594 L 505.664062 276.398438 C 507.023438 275.230469 508.546875 274.164062 510.144531 273.363281 C 511.746094 272.558594 513.421875 271.933594 515.164062 271.636719 C 516.890625 271.320312 518.679688 271.207031 520.464844 271.417969 C 522.269531 271.558594 524.03125 272.0625 525.855469 272.535156 Z M 703.433594 585.847656 L 703.476562 585.847656 C 703.660156 585.863281 703.84375 585.75 703.90625 585.566406 C 703.914062 585.523438 703.894531 585.488281 703.894531 585.4375 C 703.894531 585.261719 703.816406 585.097656 703.644531 585.035156 C 703.484375 584.984375 703.328125 584.957031 703.164062 584.902344 C 701.804688 584.492188 700.410156 584.277344 698.988281 584.214844 C 697.914062 583.34375 696.675781 582.644531 695.335938 582.242188 C 693.765625 581.789062 692.125 581.667969 690.523438 581.738281 C 688.925781 581.851562 687.355469 582.148438 685.859375 582.644531 C 684.367188 583.132812 682.929688 583.742188 681.59375 584.632812 C 681.457031 584.730469 681.386719 584.902344 681.421875 585.085938 C 681.480469 585.3125 681.707031 585.445312 681.933594 585.390625 L 681.960938 585.382812 C 684.863281 584.667969 687.765625 584.058594 690.644531 583.917969 C 692.074219 583.847656 693.484375 583.9375 694.890625 584.128906 C 695.203125 584.179688 695.5 584.285156 695.8125 584.355469 C 693.921875 584.605469 692.054688 585.175781 690.347656 586.089844 C 688.308594 587.199219 686.460938 588.75 685.203125 590.6875 C 684.480469 591.585938 684.042969 592.660156 683.511719 593.652344 C 683.085938 594.699219 682.78125 595.789062 682.476562 596.855469 C 682.414062 597.074219 682.511719 597.316406 682.71875 597.429688 C 682.953125 597.5625 683.261719 597.464844 683.390625 597.230469 L 683.417969 597.175781 C 684.417969 595.285156 685.371094 593.398438 686.738281 591.855469 C 688.011719 590.261719 689.605469 588.96875 691.375 588.007812 C 693.136719 587.023438 695.117188 586.414062 697.15625 586.0625 C 699.195312 585.734375 701.339844 585.671875 703.433594 585.847656 Z M 831.121094 778.59375 C 831.191406 779.109375 831.234375 779.605469 831.234375 780.105469 C 831.234375 780.105469 837.160156 787.117188 835.007812 792.515625 C 832.847656 797.90625 813.972656 789.8125 813.972656 789.8125 C 813.972656 789.8125 807.003906 795.683594 799.699219 794.367188 C 792.402344 793.050781 775.191406 793.050781 770.3125 792.515625 C 766.640625 792.105469 751.992188 784.054688 741.296875 778.59375 L 702.414062 778.59375 L 701.726562 782.640625 C 701.726562 782.640625 698.664062 782.164062 693.242188 781.265625 L 693.242188 820.824219 L 895.3125 820.824219 L 895.3125 881.335938 L 933.304688 881.335938 L 933.304688 778.59375 Z M 589.15625 575.414062 C 582.878906 577.269531 576.601562 579.191406 570.359375 581.1875 L 565.679688 582.6875 C 564.136719 583.105469 562.652344 583.691406 561.058594 583.953125 C 559.496094 584.300781 557.917969 584.605469 556.316406 584.800781 C 554.71875 585.0625 553.105469 585.199219 551.492188 585.347656 C 549.367188 585.550781 547.222656 585.671875 545.078125 585.757812 C 541.765625 585.898438 538.441406 585.914062 535.121094 585.863281 C 534.160156 585.847656 533.210938 585.835938 532.261719 585.8125 C 532.183594 585.800781 532.097656 585.800781 532.015625 585.800781 C 525.503906 585.59375 518.976562 585.226562 512.480469 584.605469 C 512.261719 584.589844 512.054688 584.738281 512.019531 584.957031 C 511.972656 585.183594 512.132812 585.390625 512.359375 585.4375 C 518.441406 586.464844 524.5625 587.15625 530.726562 587.554688 C 531.128906 587.582031 531.527344 587.625 531.929688 587.652344 C 532.453125 587.679688 532.96875 587.6875 533.492188 587.722656 C 538.078125 587.949219 542.671875 587.992188 547.273438 587.78125 C 548.746094 587.722656 550.222656 587.632812 551.695312 587.519531 C 553.34375 587.363281 554.988281 587.199219 556.621094 586.917969 C 558.269531 586.710938 559.898438 586.371094 561.527344 585.996094 C 563.167969 585.699219 564.753906 585.070312 566.359375 584.617188 L 570.996094 583.011719 C 577.167969 580.875 583.316406 578.648438 589.453125 576.363281 L 589.480469 576.355469 C 589.714844 576.269531 589.855469 576.007812 589.773438 575.753906 C 589.695312 575.492188 589.425781 575.34375 589.15625 575.414062 Z M 66.539062 479.492188 C 72.917969 479.25 80.328125 477.78125 86.746094 473.414062 C 101.734375 463.1875 137.84375 398.425781 142.613281 395.253906 C 146.796875 392.46875 166.203125 388.953125 170.886719 388.132812 L 170.886719 328.039062 C 159.570312 329.707031 125.863281 335.671875 117.398438 348.660156 C 107.183594 364.347656 66.992188 448.386719 66.992188 448.386719 L 57.84375 465.648438 C 54.4375 472.070312 59.277344 479.773438 66.539062 479.492188 Z M 587.605469 586.519531 C 587.378906 586.492188 587.167969 586.65625 587.140625 586.882812 C 586.425781 592.449219 585.703125 598.023438 584.859375 603.5625 C 584.054688 608.632812 583.253906 613.707031 582.101562 618.671875 C 582 619.125 581.910156 619.578125 581.796875 620.03125 C 581.171875 622.738281 580.429688 625.40625 579.410156 627.917969 C 578.390625 630.4375 576.949219 632.785156 575.371094 635.027344 C 572.164062 639.476562 568.128906 643.417969 563.707031 646.726562 L 563.671875 646.742188 C 563.472656 646.890625 563.421875 647.179688 563.550781 647.398438 C 563.691406 647.632812 563.996094 647.703125 564.230469 647.5625 C 569.113281 644.578125 573.394531 640.722656 576.925781 636.179688 C 578.703125 633.917969 580.183594 631.40625 581.335938 628.738281 C 582.453125 626.058594 583.253906 623.292969 583.917969 620.539062 C 583.933594 620.449219 583.953125 620.363281 583.96875 620.277344 C 585.1875 614.816406 586.035156 609.320312 586.679688 603.808594 C 587.316406 598.199219 587.789062 592.589844 587.980469 586.945312 C 587.980469 586.734375 587.820312 586.542969 587.605469 586.519531 Z M 279.480469 757.851562 L 5.527344 757.851562 C 4.925781 757.851562 4.4375 758.347656 4.4375 758.949219 C 4.4375 759.550781 4.925781 760.039062 5.527344 760.039062 L 279.480469 760.039062 C 280.082031 760.039062 280.566406 759.550781 280.566406 758.949219 C 280.566406 758.347656 280.082031 757.851562 279.480469 757.851562 Z M 574.039062 880.839844 L 573.976562 880.839844 L 538.738281 880.535156 L 503.449219 880.429688 L 432.855469 880.246094 L 364.515625 880.464844 L 362.273438 880.472656 L 361.777344 880.472656 L 326.984375 880.59375 L 291.78125 880.917969 L 291.683594 880.917969 C 291.457031 880.917969 291.273438 881.101562 291.273438 881.328125 C 291.273438 881.328125 291.273438 881.328125 291.273438 881.335938 C 291.273438 881.5625 291.457031 881.746094 291.683594 881.753906 L 326.984375 882.070312 L 361.003906 882.191406 L 363.523438 882.191406 L 432.855469 882.417969 L 503.449219 882.234375 L 538.738281 882.128906 L 574.039062 881.824219 C 574.308594 881.824219 574.527344 881.605469 574.527344 881.335938 C 574.527344 881.058594 574.308594 880.839844 574.039062 880.839844 Z M 1049.066406 678.992188 C 1034.566406 678.765625 1020.078125 678.601562 1005.578125 678.523438 L 973.148438 678.433594 L 970.96875 678.425781 L 962.09375 678.398438 L 935.164062 678.503906 L 932.972656 678.511719 L 918.605469 678.566406 C 904.109375 678.660156 889.617188 678.835938 875.121094 679.070312 C 874.894531 679.078125 874.71875 679.253906 874.710938 679.480469 C 874.710938 679.714844 874.894531 679.910156 875.121094 679.910156 C 889.617188 680.144531 904.109375 680.320312 918.605469 680.414062 L 932.972656 680.46875 L 935.164062 680.476562 L 962.09375 680.582031 L 970.96875 680.554688 L 973.148438 680.546875 L 1005.578125 680.457031 C 1020.078125 680.371094 1034.566406 680.214844 1049.066406 679.988281 C 1049.335938 679.976562 1049.542969 679.769531 1049.554688 679.5 C 1049.554688 679.21875 1049.335938 679 1049.066406 678.992188 Z M 765.417969 725.984375 C 767.007812 727.171875 768.652344 728.277344 770.300781 729.378906 C 771.957031 730.449219 773.625 731.53125 775.339844 732.527344 C 777.050781 733.53125 778.777344 734.515625 780.570312 735.386719 C 780.738281 735.476562 780.945312 735.433594 781.078125 735.292969 C 781.078125 735.285156 781.078125 735.265625 781.085938 735.257812 C 781.128906 735.195312 781.148438 735.125 781.15625 735.058594 C 781.164062 734.925781 781.148438 734.785156 781.035156 734.691406 C 779.535156 733.375 777.957031 732.167969 776.359375 730.992188 C 774.78125 729.789062 773.144531 728.671875 771.503906 727.554688 C 769.847656 726.464844 768.191406 725.382812 766.484375 724.371094 C 764.785156 723.359375 763.066406 722.355469 761.269531 721.476562 C 761.078125 721.378906 760.824219 721.421875 760.675781 721.597656 C 760.492188 721.804688 760.519531 722.121094 760.71875 722.304688 C 762.230469 723.613281 763.816406 724.808594 765.417969 725.984375 Z M 463.125 375.632812 L 467.269531 376.59375 C 470.046875 377.082031 472.875 377.324219 475.664062 377.683594 C 478.46875 377.71875 481.269531 377.796875 484.066406 377.789062 C 484.078125 377.789062 484.09375 377.789062 484.101562 377.789062 C 484.355469 377.789062 484.574219 377.597656 484.597656 377.335938 C 484.597656 377.316406 484.582031 377.300781 484.582031 377.28125 C 484.574219 377.039062 484.398438 376.828125 484.144531 376.800781 L 484.109375 376.800781 L 475.8125 376.085938 C 473.089844 375.617188 470.34375 375.285156 467.660156 374.691406 C 465.019531 373.898438 462.273438 373.515625 459.734375 372.433594 C 458.460938 371.945312 457.144531 371.523438 455.890625 370.984375 L 452.21875 369.167969 C 447.390625 366.621094 443.003906 363.265625 439.40625 359.15625 C 435.828125 355.0625 432.945312 350.214844 431.417969 344.964844 L 431.410156 344.917969 C 431.347656 344.710938 431.148438 344.585938 430.929688 344.621094 C 430.703125 344.667969 430.5625 344.882812 430.597656 345.109375 C 431.664062 350.753906 434.410156 355.902344 437.992188 360.34375 C 441.59375 364.800781 446.214844 368.332031 451.191406 371.097656 L 455.042969 372.945312 C 456.011719 373.355469 457.007812 373.6875 457.992188 374.039062 C 458.347656 374.152344 458.707031 374.28125 459.054688 374.402344 L 461.070312 375.109375 C 461.742188 375.328125 462.4375 375.460938 463.125 375.632812 Z M 772.160156 755.320312 C 772.027344 755.566406 772.117188 755.863281 772.359375 755.992188 C 777.144531 758.679688 781.984375 761.226562 786.839844 763.765625 C 789.230469 765.074219 791.765625 766.234375 794.09375 767.542969 C 796.4375 768.875 798.75 770.34375 801.050781 771.808594 C 804.703125 774.058594 808.3125 776.394531 812.027344 778.59375 C 813.054688 779.207031 814.085938 779.808594 815.128906 780.382812 C 817.582031 781.65625 820.003906 783.078125 822.941406 783.628906 C 824.398438 783.847656 825.949219 783.714844 827.328125 783.140625 C 828.703125 782.539062 829.863281 781.558594 830.605469 780.234375 C 830.710938 780.042969 830.65625 779.808594 830.484375 779.683594 C 830.300781 779.554688 830.039062 779.597656 829.90625 779.789062 L 829.882812 779.824219 C 829.167969 780.828125 828.058594 781.628906 826.898438 782.039062 C 825.714844 782.425781 824.433594 782.457031 823.195312 782.179688 C 820.738281 781.605469 818.375 780.148438 816.046875 778.777344 C 815.949219 778.726562 815.855469 778.65625 815.757812 778.59375 C 811.207031 775.839844 806.734375 772.878906 802.21875 769.96875 C 799.890625 768.511719 797.546875 767.0625 795.113281 765.71875 C 792.636719 764.394531 790.207031 763.234375 787.710938 762.046875 C 782.769531 759.671875 777.808594 757.328125 772.796875 755.101562 C 772.558594 755.007812 772.28125 755.09375 772.160156 755.320312 Z M 763.46875 784.777344 C 766.394531 786.359375 769.550781 787.441406 772.65625 788.453125 C 775.792969 789.367188 778.933594 790.25 782.113281 790.980469 C 785.289062 791.722656 788.480469 792.394531 791.703125 792.890625 C 791.898438 792.925781 792.105469 792.804688 792.167969 792.605469 C 792.238281 792.386719 792.113281 792.148438 791.898438 792.082031 C 788.800781 791.070312 785.6875 790.144531 782.585938 789.203125 C 779.492188 788.261719 776.371094 787.386719 773.300781 786.375 C 770.207031 785.441406 767.207031 784.394531 764.320312 783.042969 C 761.644531 781.804688 759.039062 780.3125 756.648438 778.59375 C 756.464844 778.472656 756.273438 778.367188 756.089844 778.238281 L 756.066406 778.210938 C 755.875 778.070312 755.601562 778.078125 755.421875 778.253906 C 755.332031 778.351562 755.28125 778.472656 755.28125 778.59375 C 755.28125 778.726562 755.316406 778.855469 755.421875 778.960938 C 757.765625 781.367188 760.539062 783.199219 763.46875 784.777344 Z M 932.972656 219.050781 L 921.464844 219.050781 L 921.464844 256.34375 L 932.972656 256.34375 Z M 932.972656 352.230469 L 921.464844 352.230469 L 921.464844 389.53125 L 932.972656 389.53125 Z M 858.25 621.410156 C 861.25 621.566406 864.230469 620.914062 867.003906 619.882812 C 868.390625 619.34375 869.75 618.75 871.023438 618 C 871.421875 617.773438 871.796875 617.519531 872.183594 617.277344 C 872.820312 616.875 873.429688 616.4375 874.03125 615.96875 L 874.03125 643.191406 L 876.210938 643.191406 L 876.210938 614.71875 C 883.375 610.417969 885.886719 601.976562 885.886719 601.976562 C 888.109375 596.828125 889.164062 591.339844 890.027344 585.890625 C 890.847656 580.410156 891.320312 574.90625 891.535156 569.394531 C 891.695312 566.628906 891.492188 563.820312 891.839844 561.265625 C 892.207031 558.648438 892.976562 556.046875 893.699219 553.378906 C 895.171875 548.039062 896.113281 542.507812 896.367188 536.917969 C 896.472656 534.066406 896.105469 531.097656 894.867188 528.394531 C 893.664062 525.691406 891.554688 523.378906 888.980469 521.921875 C 888.667969 521.730469 888.328125 521.574219 888.003906 521.40625 L 887.5 521.179688 C 887.316406 521.085938 886.960938 520.972656 886.679688 520.953125 C 885.609375 520.867188 884.476562 521.371094 883.933594 522.464844 C 883.671875 523.089844 883.691406 523.328125 883.59375 523.667969 L 883.351562 524.644531 L 882.820312 526.605469 C 882.070312 529.214844 881.207031 531.796875 880.28125 534.371094 C 878.46875 539.210938 876.507812 544 874.625 548.824219 C 874.484375 548.910156 874.363281 549.035156 874.292969 549.199219 C 872.136719 554.292969 869.878906 559.34375 867.632812 564.40625 L 864.171875 571.941406 L 862.347656 575.65625 C 862.042969 576.257812 861.710938 576.894531 861.390625 577.4375 C 861.050781 577.941406 860.578125 578.394531 860.0625 578.824219 C 859.855469 578.988281 859.820312 579.292969 859.984375 579.503906 C 860.152344 579.722656 860.464844 579.757812 860.675781 579.589844 C 861.242188 579.15625 861.808594 578.667969 862.253906 578.019531 C 862.671875 577.382812 862.984375 576.800781 863.332031 576.179688 L 865.269531 572.492188 L 868.972656 565.023438 C 871.265625 560.332031 873.410156 555.578125 875.546875 550.804688 C 875.722656 550.707031 875.871094 550.5625 875.949219 550.367188 C 878.023438 545.265625 880.253906 540.222656 882.191406 535.058594 C 883.140625 532.46875 884.03125 529.851562 884.816406 527.183594 L 885.371094 525.167969 L 885.625 524.15625 C 885.703125 523.832031 885.800781 523.371094 885.816406 523.371094 C 885.878906 523.195312 886.210938 523.03125 886.488281 523.054688 C 886.558594 523.066406 886.542969 523.046875 886.664062 523.109375 L 887.089844 523.308594 C 887.378906 523.449219 887.65625 523.589844 887.925781 523.753906 C 890.132812 525.019531 891.886719 526.972656 892.914062 529.285156 C 893.960938 531.597656 894.273438 534.230469 894.195312 536.847656 C 893.976562 542.230469 893.113281 547.601562 891.695312 552.847656 C 891.003906 555.488281 890.230469 558.167969 889.84375 561.003906 C 889.480469 563.90625 889.714844 566.613281 889.574219 569.332031 C 889.417969 574.785156 889.070312 580.246094 888.355469 585.644531 C 887.613281 591.035156 886.609375 596.4375 884.648438 601.46875 C 884.109375 602.691406 883.664062 603.980469 882.933594 605.097656 C 882.582031 605.664062 882.296875 606.285156 881.894531 606.808594 L 880.640625 608.335938 C 878.9375 610.148438 877.117188 611.886719 875.339844 613.65625 L 874.03125 614.753906 L 874.03125 614.824219 L 870.230469 616.332031 C 868.894531 616.839844 867.578125 617.363281 866.246094 617.835938 C 864.929688 618.339844 863.585938 618.757812 862.242188 619.203125 C 860.902344 619.65625 859.53125 619.988281 858.15625 620.425781 L 858.128906 620.425781 C 857.9375 620.484375 857.789062 620.667969 857.78125 620.878906 C 857.761719 621.15625 857.980469 621.394531 858.25 621.410156 Z M 766.359375 773.925781 C 768.566406 775.054688 770.824219 775.671875 773.066406 776.316406 C 775.960938 777.113281 778.855469 777.816406 781.707031 778.59375 C 783.273438 779.03125 784.835938 779.476562 786.371094 779.988281 C 790.667969 781.421875 795.140625 782.921875 799.542969 784.308594 C 803.960938 785.695312 808.390625 787.054688 812.863281 788.292969 C 813.0625 788.347656 813.273438 788.25 813.359375 788.050781 C 813.449219 787.832031 813.34375 787.589844 813.125 787.507812 L 813.117188 787.5 C 808.820312 785.757812 804.484375 784.152344 800.152344 782.5625 L 788.96875 778.59375 L 787.050781 777.914062 C 782.566406 776.5 778.015625 775.488281 773.546875 774.441406 C 771.320312 773.917969 769.054688 773.394531 767.09375 772.503906 C 765.203125 771.476562 763.285156 770.082031 761.320312 768.921875 L 761.226562 768.867188 C 761.015625 768.738281 760.738281 768.789062 760.589844 768.988281 C 760.425781 769.199219 760.460938 769.511719 760.675781 769.671875 C 762.542969 771.109375 764.296875 772.558594 766.359375 773.925781 Z M 419.902344 482.457031 L 430.09375 496.964844 L 439.4375 510.285156 C 445.988281 519.53125 452.59375 528.742188 459.265625 537.910156 C 459.335938 538.007812 459.4375 538.050781 459.542969 538.085938 C 459.664062 538.121094 459.789062 538.113281 459.910156 538.042969 C 459.917969 538.035156 459.9375 538.042969 459.945312 538.035156 C 460.171875 537.886719 460.230469 537.582031 460.082031 537.34375 C 460.003906 537.242188 459.925781 537.125 459.847656 537.011719 C 458.707031 535.304688 457.539062 533.613281 456.394531 531.902344 C 451.304688 524.304688 446.203125 516.714844 441.027344 509.175781 L 431.617188 495.570312 L 421.6875 481.203125 L 411.90625 467.289062 C 408.507812 462.65625 404.636719 458.320312 400.09375 454.769531 C 391.0625 447.644531 379.710938 443.351562 368.1875 443.5625 C 367.960938 443.5625 367.785156 443.746094 367.777344 443.972656 C 367.777344 444.199219 367.960938 444.390625 368.195312 444.390625 L 368.238281 444.390625 C 373.800781 444.425781 379.378906 445.769531 384.558594 447.800781 C 389.773438 449.808594 394.644531 452.660156 398.945312 456.210938 C 403.234375 459.769531 406.972656 463.929688 410.242188 468.464844 Z M 429.109375 316.386719 C 429.167969 316.402344 429.238281 316.4375 429.308594 316.421875 C 429.578125 316.375 429.761719 316.125 429.71875 315.851562 C 429.667969 315.582031 429.597656 315.320312 429.542969 315.050781 C 429.160156 313.035156 428.65625 311.054688 428.070312 309.085938 C 427.417969 306.859375 426.632812 304.671875 425.671875 302.515625 C 424.609375 300.195312 422.902344 298.371094 421.050781 296.878906 C 419.195312 295.398438 417.199219 294.148438 415.027344 293.207031 C 415.011719 293.199219 414.992188 293.214844 414.976562 293.207031 C 414.808594 293.164062 414.636719 293.199219 414.53125 293.347656 C 414.390625 293.53125 414.425781 293.792969 414.617188 293.933594 L 414.628906 293.941406 C 414.652344 293.957031 414.671875 293.976562 414.679688 293.984375 C 416.484375 295.328125 418.246094 296.730469 419.832031 298.265625 C 421.402344 299.835938 422.855469 301.496094 423.683594 303.40625 C 424.601562 305.457031 425.394531 307.59375 426.238281 309.722656 C 427.066406 311.847656 427.878906 313.996094 428.769531 316.125 C 428.828125 316.261719 428.960938 316.351562 429.109375 316.386719 Z M 512.847656 333.675781 C 512.6875 333.457031 512.375 333.40625 512.15625 333.5625 L 512.132812 333.578125 C 509.453125 335.515625 506.507812 336.886719 503.359375 337.625 C 500.195312 338.324219 496.917969 338.429688 493.65625 338.175781 C 491.601562 338.082031 489.550781 337.757812 487.519531 337.347656 C 486.316406 337.113281 485.113281 336.839844 483.917969 336.554688 C 480.710938 335.75 477.511719 334.757812 474.398438 333.570312 L 474.382812 333.570312 C 474.199219 333.5 473.980469 333.570312 473.875 333.753906 C 473.761719 333.953125 473.832031 334.207031 474.03125 334.320312 C 476.996094 336.03125 480.160156 337.285156 483.421875 338.332031 C 484.710938 338.734375 486.019531 339.074219 487.34375 339.378906 C 489.367188 339.832031 491.417969 340.183594 493.492188 340.347656 C 496.925781 340.539062 500.449219 340.445312 503.832031 339.503906 C 507.195312 338.515625 510.335938 336.761719 512.792969 334.3125 C 512.96875 334.144531 512.996094 333.875 512.847656 333.675781 Z M 380.09375 625.300781 C 377.3125 624.191406 374.628906 622.839844 372.066406 621.253906 C 369.457031 619.726562 367.027344 617.914062 364.621094 616.0625 C 362.222656 614.195312 359.886719 612.207031 357.644531 610.148438 L 357.636719 610.140625 C 357.488281 610 357.261719 609.984375 357.097656 610.113281 C 356.914062 610.253906 356.878906 610.515625 357.019531 610.699219 C 358.925781 613.183594 361.117188 615.390625 363.433594 617.476562 C 365.761719 619.550781 368.28125 621.417969 370.921875 623.113281 C 373.625 624.699219 376.449219 626.136719 379.457031 627.125 C 381.976562 627.902344 384.609375 628.363281 387.242188 628.390625 C 387.460938 628.398438 387.679688 628.390625 387.898438 628.390625 L 394.539062 637.609375 C 396.25 639.957031 398.011719 642.269531 399.738281 644.597656 C 401.976562 647.625 404.210938 650.660156 406.484375 653.667969 C 406.859375 654.15625 407.21875 654.664062 407.582031 655.152344 C 407.738281 655.363281 408.035156 655.40625 408.253906 655.265625 C 408.273438 655.246094 408.273438 655.230469 408.28125 655.222656 C 408.472656 655.054688 408.535156 654.785156 408.394531 654.578125 C 407.949219 653.90625 407.476562 653.25 407.035156 652.578125 C 403.433594 647.1875 399.804688 641.8125 396.109375 636.492188 L 383.546875 618.609375 L 370.75 600.894531 C 368.789062 598.207031 366.773438 595.5625 364.785156 592.894531 C 362.414062 589.71875 360.078125 586.527344 357.671875 583.367188 C 357.539062 583.195312 357.296875 583.152344 357.113281 583.273438 C 356.921875 583.402344 356.871094 583.664062 356.992188 583.855469 C 359.320312 587.363281 361.707031 590.828125 364.070312 594.316406 C 365.796875 596.863281 367.496094 599.429688 369.25 601.957031 L 381.769531 619.867188 L 387 627.132812 C 386.730469 627.089844 386.460938 627.046875 386.199219 626.992188 C 384.105469 626.609375 382.074219 626.042969 380.09375 625.300781 Z M 368.34375 266.769531 C 368.351562 266.769531 368.351562 266.757812 368.351562 266.757812 C 367.085938 240.09375 374.949219 208.890625 390.148438 196.222656 C 394.070312 192.953125 399.761719 189.933594 406.632812 187.34375 C 406.660156 187.289062 406.695312 187.210938 406.695312 187.210938 C 406.695312 187.210938 395.230469 184.988281 388.671875 189.359375 C 382.117188 193.726562 365.519531 208.59375 362.457031 230.007812 C 359.40625 251.433594 366.371094 266.359375 368.34375 266.769531 Z M 302.859375 403.511719 C 357.070312 328.914062 298.171875 219.757812 333.042969 184.253906 C 369.5625 147.085938 398.960938 175.828125 408.011719 186.84375 C 438.078125 175.992188 489.035156 173.082031 514.78125 191.25 C 549.253906 215.589844 539.996094 252.652344 535.25 265.816406 C 534.144531 268.886719 533.273438 270.667969 533.273438 270.667969 L 529.925781 255.949219 C 529.925781 255.949219 525.855469 264.691406 517.117188 261.777344 C 508.375 258.855469 494.398438 244.871094 494.398438 244.871094 C 494.398438 244.871094 499.636719 260.609375 479.246094 259.449219 C 458.863281 258.28125 443.136719 244.289062 443.136719 244.289062 C 443.441406 255.472656 441.730469 268.066406 439.046875 280.59375 C 437.652344 287.109375 435.996094 293.59375 434.21875 299.855469 C 431.984375 294.855469 428.75 290.328125 424.480469 286.699219 C 424.183594 286.4375 423.878906 286.210938 423.570312 285.96875 C 419.796875 283 415.707031 281.265625 412.003906 282.957031 C 411.664062 283.113281 411.332031 283.308594 411.019531 283.542969 C 410.511719 283.917969 410.042969 284.398438 409.597656 284.945312 C 405.324219 290.242188 404.042969 303.300781 406.730469 315.148438 C 408.226562 321.734375 410.949219 327.925781 415.070312 332.191406 C 416.738281 333.917969 418.636719 335.324219 420.765625 336.308594 C 421.097656 336.464844 421.445312 336.605469 421.785156 336.738281 C 421.644531 337.113281 421.496094 337.488281 421.359375 337.84375 C 418.035156 346.386719 415.683594 351.679688 415.683594 351.679688 C 415.683594 351.679688 410.339844 346.324219 403.292969 338.089844 C 400.625 352.5 397.269531 364.144531 393.144531 370.878906 C 376.546875 397.984375 302.859375 403.511719 302.859375 403.511719 Z M 495.792969 633.257812 L 495.820312 633.257812 C 500.625 632.140625 505.574219 631.660156 510.394531 632.140625 C 512.8125 632.324219 515.175781 632.882812 517.464844 633.613281 L 519.183594 634.207031 L 520.832031 634.976562 C 521.984375 635.410156 522.960938 636.160156 524.082031 636.703125 L 524.144531 636.730469 C 524.34375 636.824219 524.589844 636.78125 524.738281 636.605469 C 524.765625 636.582031 524.753906 636.535156 524.773438 636.5 C 524.867188 636.300781 524.859375 636.066406 524.683594 635.917969 C 522.75 634.25 520.585938 632.726562 518.148438 631.800781 C 517.160156 631.390625 516.140625 631.058594 515.113281 630.769531 C 513.628906 630.371094 512.121094 630.082031 510.597656 629.96875 C 508.015625 629.75 505.410156 629.828125 502.871094 630.265625 C 500.335938 630.699219 497.859375 631.363281 495.523438 632.480469 C 495.347656 632.558594 495.246094 632.75 495.289062 632.953125 C 495.339844 633.167969 495.566406 633.308594 495.792969 633.257812 Z M 498.121094 346.289062 C 496.988281 346.507812 495.84375 346.515625 494.722656 346.5 C 493.585938 346.4375 492.472656 346.316406 491.375 346.070312 C 490.285156 345.828125 489.203125 345.539062 488.15625 345.058594 C 487.945312 344.964844 487.851562 344.703125 487.945312 344.492188 C 488.015625 344.335938 488.171875 344.246094 488.332031 344.238281 C 492.734375 344.089844 496.910156 344.613281 501.058594 344.1875 L 501.085938 344.1875 C 501.355469 344.152344 501.609375 344.351562 501.632812 344.632812 C 501.652344 344.832031 501.566406 345.015625 501.40625 345.109375 C 500.398438 345.757812 499.253906 346.070312 498.121094 346.289062 "/>
</g>
</svg>
