<?xml version="1.0" encoding="UTF-8"?>
<svg xmlns="http://www.w3.org/2000/svg" xmlns:xlink="http://www.w3.org/1999/xlink" width="375pt" height="374.999991pt" viewBox="0 0 375 374.999991" version="1.2">
<defs>
<clipPath id="clip1">
  <path d="M 1.765625 10.433594 L 373.441406 10.433594 L 373.441406 364.425781 L 1.765625 364.425781 Z M 1.765625 10.433594 "/>
</clipPath>
</defs>
<g id="surface1">
<path style=" stroke:none;fill-rule:nonzero;fill:rgb(0%,29.019165%,67.83905%);fill-opacity:1;" d="M 154.152344 208.746094 C 149.375 208.746094 145.65625 204.855469 145.65625 200.078125 C 145.65625 195.300781 149.371094 191.410156 154.152344 191.410156 C 158.929688 191.410156 162.824219 195.300781 162.824219 200.078125 C 162.824219 204.855469 158.929688 208.746094 154.152344 208.746094 Z M 187.78125 191.410156 C 192.554688 191.410156 196.273438 195.300781 196.273438 200.078125 C 196.273438 204.855469 192.554688 208.746094 187.78125 208.746094 C 183 208.746094 179.109375 204.855469 179.109375 200.078125 C 179.109375 195.300781 183 191.410156 187.78125 191.410156 Z M 221.230469 191.410156 C 226.007812 191.410156 229.902344 195.300781 229.902344 200.078125 C 229.902344 204.855469 226.007812 208.746094 221.230469 208.746094 C 216.453125 208.746094 212.734375 204.855469 212.734375 200.078125 C 212.734375 195.300781 216.453125 191.410156 221.230469 191.410156 Z M 187.78125 261.820312 C 241.40625 261.820312 284.769531 227.144531 284.769531 184.335938 C 284.769531 141.523438 241.40625 106.847656 187.78125 106.847656 C 134.152344 106.847656 90.613281 141.523438 90.613281 184.335938 C 90.613281 207.152344 103.003906 227.675781 122.648438 241.828125 L 127.25 295.964844 L 172.558594 260.9375 C 177.511719 261.46875 182.472656 261.820312 187.78125 261.820312 "/>
<g clip-path="url(#clip1)" clip-rule="nonzero">
<path style=" stroke:none;fill-rule:nonzero;fill:rgb(0%,29.019165%,67.83905%);fill-opacity:1;" d="M 367.070312 167.703125 L 354.5 167.703125 L 354.5 167.171875 C 354.5 161.867188 350.253906 157.617188 345.121094 157.617188 L 322.644531 157.617188 L 322.644531 145.238281 C 322.644531 108.261719 307.421875 74.472656 282.996094 50.058594 C 258.574219 25.644531 224.769531 10.429688 187.78125 10.429688 C 150.613281 10.429688 116.804688 25.644531 92.382812 50.058594 C 67.957031 74.472656 52.738281 108.261719 52.738281 145.238281 L 52.738281 157.617188 L 30.085938 157.617188 C 24.949219 157.617188 20.703125 161.867188 20.703125 167.171875 L 20.703125 167.703125 L 7.960938 167.703125 C 4.597656 167.703125 1.765625 170.535156 1.765625 174.070312 L 1.765625 238.113281 C 1.765625 241.652344 4.597656 244.484375 7.960938 244.484375 L 20.703125 244.484375 L 20.703125 245.011719 C 20.703125 250.324219 24.949219 254.566406 30.085938 254.566406 L 63.710938 254.566406 C 68.84375 254.566406 73.269531 250.324219 73.269531 245.011719 L 73.269531 167.171875 C 73.269531 161.867188 68.84375 157.621094 63.710938 157.621094 L 62.117188 157.621094 L 62.117188 145.238281 C 62.117188 111.800781 75.570312 81.195312 97.160156 58.726562 C 97.691406 58.019531 98.398438 57.3125 99.109375 56.605469 C 121.765625 33.960938 153.265625 19.808594 187.777344 19.808594 C 222.289062 19.808594 253.617188 33.960938 276.449219 56.605469 C 276.980469 57.3125 277.511719 57.84375 278.042969 58.375 C 299.8125 81.015625 313.265625 111.625 313.265625 145.238281 L 313.265625 157.621094 L 311.492188 157.621094 C 306.183594 157.621094 301.9375 161.867188 301.9375 167.171875 L 301.9375 245.011719 C 301.9375 249.613281 305.121094 253.328125 309.367188 254.390625 C 303.707031 276.503906 292.027344 296.320312 276.449219 311.886719 C 253.972656 334.355469 223.175781 348.507812 189.191406 348.859375 C 187.953125 344.96875 184.238281 341.960938 179.992188 341.960938 L 147.070312 341.960938 C 141.761719 341.960938 137.515625 346.207031 137.515625 351.511719 L 137.515625 355.054688 C 137.515625 360.183594 141.761719 364.425781 147.070312 364.425781 L 179.992188 364.425781 C 184.0625 364.425781 187.601562 361.949219 189.019531 358.238281 C 225.652344 357.882812 258.929688 342.84375 282.996094 318.605469 C 300.34375 301.269531 313.085938 279.160156 318.925781 254.566406 L 345.121094 254.566406 C 350.253906 254.566406 354.5 250.324219 354.5 245.011719 L 354.5 244.480469 L 367.066406 244.480469 C 370.605469 244.480469 373.4375 241.652344 373.4375 238.113281 L 373.4375 174.070312 C 373.441406 170.535156 370.609375 167.703125 367.070312 167.703125 "/>
</g>
</g>
</svg>
