<?xml version="1.0" encoding="UTF-8"?>
<svg xmlns="http://www.w3.org/2000/svg" xmlns:xlink="http://www.w3.org/1999/xlink" width="375pt" height="374.999991pt" viewBox="0 0 375 374.999991" version="1.2">
<defs>
<clipPath id="clip1">
  <path d="M 111 332 L 268 332 L 268 363.855469 L 111 363.855469 Z M 111 332 "/>
</clipPath>
<clipPath id="clip2">
  <path d="M 4.3125 34 L 374.8125 34 L 374.8125 308 L 4.3125 308 Z M 4.3125 34 "/>
</clipPath>
<clipPath id="clip3">
  <path d="M 85 21.855469 L 294 21.855469 L 294 230 L 85 230 Z M 85 21.855469 "/>
</clipPath>
<clipPath id="clip4">
  <path d="M 135 21.855469 L 245 21.855469 L 245 230 L 135 230 Z M 135 21.855469 "/>
</clipPath>
</defs>
<g id="surface1">
<path style=" stroke:none;fill-rule:nonzero;fill:rgb(0%,29.019165%,67.83905%);fill-opacity:1;" d="M 235.84375 342.1875 L 143.28125 342.1875 L 143.28125 291.902344 L 235.84375 291.902344 L 235.84375 342.1875 "/>
<path style=" stroke:none;fill-rule:nonzero;fill:rgb(0%,29.019165%,67.83905%);fill-opacity:1;" d="M 235.84375 342.1875 L 235.84375 338.1875 L 147.277344 338.1875 L 147.277344 295.902344 L 231.847656 295.902344 L 231.847656 342.1875 L 235.84375 342.1875 L 235.84375 338.1875 L 235.84375 342.1875 L 239.839844 342.1875 L 239.839844 287.902344 L 139.285156 287.902344 L 139.285156 346.1875 L 239.839844 346.1875 L 239.839844 342.1875 L 235.84375 342.1875 "/>
<path style=" stroke:none;fill-rule:nonzero;fill:rgb(100%,100%,100%);fill-opacity:1;" d="M 263.90625 359.949219 L 115.199219 359.949219 L 115.199219 336.28125 L 263.90625 336.28125 L 263.90625 359.949219 "/>
<g clip-path="url(#clip1)" clip-rule="nonzero">
<path style=" stroke:none;fill-rule:nonzero;fill:rgb(0%,29.019165%,67.83905%);fill-opacity:1;" d="M 263.90625 359.949219 L 263.90625 355.949219 L 119.195312 355.949219 L 119.195312 340.28125 L 259.914062 340.28125 L 259.914062 359.949219 L 263.90625 359.949219 L 263.90625 355.949219 L 263.90625 359.949219 L 267.902344 359.949219 L 267.902344 332.28125 L 111.207031 332.28125 L 111.207031 363.953125 L 267.902344 363.953125 L 267.902344 359.949219 L 263.90625 359.949219 "/>
</g>
<path style=" stroke:none;fill-rule:nonzero;fill:rgb(100%,100%,100%);fill-opacity:1;" d="M 370.777344 291.902344 C 370.777344 298.433594 365.484375 303.730469 358.949219 303.730469 L 20.175781 303.730469 C 13.65625 303.730469 8.355469 298.433594 8.355469 291.902344 L 8.355469 50.277344 C 8.355469 43.75 13.65625 38.453125 20.175781 38.453125 L 358.949219 38.453125 C 365.484375 38.453125 370.777344 43.75 370.777344 50.277344 L 370.777344 291.902344 "/>
<g clip-path="url(#clip2)" clip-rule="nonzero">
<path style=" stroke:none;fill-rule:nonzero;fill:rgb(0%,29.019165%,67.83905%);fill-opacity:1;" d="M 370.777344 291.902344 L 366.78125 291.902344 C 366.765625 294.078125 365.902344 296.015625 364.480469 297.441406 C 363.054688 298.863281 361.121094 299.730469 358.949219 299.730469 L 20.175781 299.730469 C 18.003906 299.730469 16.070312 298.863281 14.644531 297.441406 C 13.222656 296.015625 12.359375 294.078125 12.34375 291.902344 L 12.34375 50.277344 C 12.359375 48.101562 13.222656 46.164062 14.644531 44.742188 C 16.070312 43.316406 18.003906 42.453125 20.175781 42.453125 L 358.949219 42.453125 C 361.121094 42.453125 363.054688 43.316406 364.480469 44.742188 C 365.902344 46.164062 366.765625 48.101562 366.78125 50.277344 L 366.78125 291.902344 L 374.769531 291.902344 L 374.769531 50.277344 C 374.769531 45.925781 372.996094 41.941406 370.136719 39.074219 C 367.277344 36.226562 363.3125 34.449219 358.949219 34.449219 L 20.175781 34.449219 C 15.828125 34.449219 11.832031 36.226562 8.992188 39.074219 C 6.140625 41.941406 4.363281 45.925781 4.363281 50.277344 L 4.363281 291.902344 C 4.363281 296.257812 6.140625 300.242188 8.992188 303.089844 C 11.832031 305.953125 15.828125 307.746094 20.175781 307.730469 L 358.949219 307.730469 C 363.3125 307.746094 367.277344 305.953125 370.136719 303.089844 C 372.996094 300.242188 374.769531 296.257812 374.769531 291.902344 L 370.777344 291.902344 "/>
</g>
<path style=" stroke:none;fill-rule:nonzero;fill:rgb(63.919067%,77.249146%,92.158508%);fill-opacity:1;" d="M 347.410156 276.332031 C 347.410156 282.027344 342.792969 286.636719 337.117188 286.636719 L 42.007812 286.636719 C 36.316406 286.636719 31.714844 282.027344 31.714844 276.332031 L 31.714844 65.867188 C 31.714844 60.167969 36.316406 55.542969 42.007812 55.542969 L 337.117188 55.542969 C 342.792969 55.542969 347.410156 60.167969 347.410156 65.867188 L 347.410156 276.332031 "/>
<path style=" stroke:none;fill-rule:nonzero;fill:rgb(0%,29.019165%,67.83905%);fill-opacity:1;" d="M 347.410156 276.332031 L 343.414062 276.332031 C 343.414062 278.074219 342.710938 279.628906 341.5625 280.78125 C 340.410156 281.933594 338.859375 282.636719 337.117188 282.636719 L 42.007812 282.636719 C 40.265625 282.636719 38.714844 281.933594 37.5625 280.78125 C 36.414062 279.628906 35.726562 278.074219 35.710938 276.332031 L 35.710938 65.867188 C 35.726562 64.105469 36.414062 62.554688 37.5625 61.402344 C 38.714844 60.25 40.265625 59.542969 42.007812 59.542969 L 337.117188 59.542969 C 338.859375 59.542969 340.410156 60.25 341.5625 61.402344 C 342.710938 62.554688 343.414062 64.105469 343.414062 65.867188 L 343.414062 276.332031 L 351.40625 276.332031 L 351.40625 65.867188 C 351.40625 61.914062 349.792969 58.3125 347.21875 55.734375 C 344.644531 53.160156 341.050781 51.542969 337.117188 51.542969 L 42.007812 51.542969 C 38.074219 51.542969 34.480469 53.160156 31.90625 55.734375 C 29.332031 58.3125 27.71875 61.914062 27.71875 65.867188 L 27.71875 276.332031 C 27.71875 280.269531 29.332031 283.867188 31.90625 286.445312 C 34.480469 289.023438 38.074219 290.636719 42.007812 290.636719 L 337.117188 290.636719 C 341.050781 290.636719 344.644531 289.023438 347.21875 286.445312 C 349.792969 283.867188 351.40625 280.269531 351.40625 276.332031 L 347.410156 276.332031 "/>
<path style=" stroke:none;fill-rule:nonzero;fill:rgb(26.269531%,55.288696%,79.60968%);fill-opacity:1;" d="M 289.191406 125.6875 C 289.191406 180.773438 244.585938 225.4375 189.5625 225.4375 C 134.554688 225.4375 89.949219 180.773438 89.949219 125.6875 C 89.949219 70.585938 134.554688 25.921875 189.5625 25.921875 C 244.585938 25.921875 289.191406 70.585938 289.191406 125.6875 "/>
<g clip-path="url(#clip3)" clip-rule="nonzero">
<path style=" stroke:none;fill-rule:nonzero;fill:rgb(0%,29.019165%,67.83905%);fill-opacity:1;" d="M 289.191406 125.6875 L 285.195312 125.6875 C 285.179688 152.140625 274.488281 176.050781 257.179688 193.398438 C 239.855469 210.730469 215.980469 221.4375 189.5625 221.4375 C 163.144531 221.4375 139.269531 210.730469 121.945312 193.398438 C 104.636719 176.050781 93.945312 152.140625 93.945312 125.6875 C 93.945312 99.234375 104.636719 75.324219 121.945312 57.976562 C 139.269531 40.644531 163.144531 29.921875 189.5625 29.921875 C 215.980469 29.921875 239.855469 40.644531 257.179688 57.976562 C 274.488281 75.324219 285.179688 99.234375 285.195312 125.6875 L 293.1875 125.6875 C 293.167969 68.378906 246.792969 21.917969 189.5625 21.917969 C 132.332031 21.917969 85.953125 68.378906 85.953125 125.6875 C 85.953125 182.996094 132.332031 229.441406 189.5625 229.441406 C 246.792969 229.441406 293.167969 182.996094 293.1875 125.6875 L 289.191406 125.6875 "/>
</g>
<g clip-path="url(#clip4)" clip-rule="nonzero">
<path style=" stroke:none;fill-rule:nonzero;fill:rgb(0%,29.019165%,67.83905%);fill-opacity:1;" d="M 240.128906 125.6875 L 236.132812 125.6875 C 236.148438 152.6875 230.554688 177.09375 221.75 194.40625 C 217.371094 203.082031 212.191406 209.949219 206.695312 214.523438 C 203.929688 216.828125 201.117188 218.558594 198.257812 219.710938 C 195.394531 220.863281 192.519531 221.4375 189.5625 221.4375 C 186.605469 221.4375 183.730469 220.863281 180.867188 219.710938 C 175.882812 217.695312 170.960938 213.902344 166.40625 208.445312 C 159.582031 200.265625 153.667969 188.4375 149.527344 174.210938 C 145.390625 160 142.992188 143.402344 142.992188 125.6875 C 142.992188 98.691406 148.585938 74.285156 157.375 56.953125 C 161.753906 48.292969 166.949219 41.429688 172.445312 36.835938 C 175.195312 34.546875 178.023438 32.820312 180.867188 31.667969 C 183.730469 30.515625 186.605469 29.921875 189.5625 29.921875 C 192.519531 29.921875 195.394531 30.515625 198.257812 31.667969 C 203.242188 33.667969 208.164062 37.476562 212.71875 42.933594 C 219.542969 51.09375 225.457031 62.921875 229.597656 77.148438 C 233.734375 91.375 236.132812 107.972656 236.132812 125.6875 L 244.121094 125.6875 C 244.105469 97.585938 238.386719 72.125 228.875 53.335938 C 224.113281 43.941406 218.394531 36.195312 211.808594 30.691406 C 208.5 27.9375 204.984375 25.746094 201.246094 24.242188 C 197.519531 22.734375 193.589844 21.917969 189.5625 21.917969 C 185.535156 21.917969 181.605469 22.734375 177.878906 24.242188 C 171.34375 26.882812 165.460938 31.601562 160.285156 37.796875 C 152.519531 47.125 146.253906 59.878906 141.875 74.910156 C 137.496094 89.9375 135.003906 107.234375 135.003906 125.6875 C 135.019531 153.789062 140.738281 179.253906 150.25 198.042969 C 155.011719 207.417969 160.730469 215.164062 167.332031 220.671875 C 170.625 223.421875 174.15625 225.617188 177.878906 227.121094 C 181.605469 228.640625 185.535156 229.441406 189.5625 229.441406 C 193.589844 229.441406 197.519531 228.640625 201.246094 227.121094 C 207.78125 224.480469 213.664062 219.773438 218.855469 213.566406 C 226.625 204.234375 232.871094 191.496094 237.265625 176.453125 C 241.644531 161.425781 244.121094 144.125 244.121094 125.6875 L 240.128906 125.6875 "/>
</g>
<path style=" stroke:none;fill-rule:nonzero;fill:rgb(0%,29.019165%,67.83905%);fill-opacity:1;" d="M 189.5625 176.308594 L 189.5625 172.308594 C 162.601562 172.324219 138.230469 166.722656 120.9375 157.917969 C 112.277344 153.519531 105.421875 148.332031 100.851562 142.828125 C 98.546875 140.074219 96.824219 137.242188 95.671875 134.394531 C 94.519531 131.53125 93.945312 128.648438 93.945312 125.6875 C 93.945312 122.726562 94.519531 119.832031 95.671875 116.980469 C 97.683594 111.988281 101.472656 107.058594 106.921875 102.5 C 115.089844 95.664062 126.898438 89.742188 141.089844 85.597656 C 155.296875 81.453125 171.871094 79.054688 189.5625 79.054688 C 216.523438 79.039062 240.894531 84.636719 258.203125 93.457031 C 266.847656 97.839844 273.703125 103.027344 278.292969 108.53125 C 280.578125 111.300781 282.300781 114.117188 283.453125 116.980469 C 284.605469 119.832031 285.179688 122.726562 285.195312 125.6875 C 285.179688 128.648438 284.605469 131.53125 283.453125 134.394531 C 281.441406 139.386719 277.652344 144.316406 272.203125 148.863281 C 264.035156 155.710938 252.226562 161.632812 238.035156 165.761719 C 223.828125 169.921875 207.253906 172.308594 189.5625 172.308594 L 189.5625 180.308594 C 217.625 180.308594 243.050781 174.5625 261.8125 165.058594 C 271.195312 160.289062 278.914062 154.558594 284.429688 147.949219 C 287.175781 144.652344 289.367188 141.117188 290.867188 137.386719 C 292.371094 133.640625 293.1875 129.703125 293.1875 125.6875 C 293.1875 121.65625 292.371094 117.71875 290.867188 113.988281 C 288.230469 107.445312 283.515625 101.554688 277.332031 96.351562 C 268.015625 88.574219 255.277344 82.316406 240.269531 77.917969 C 225.265625 73.53125 207.972656 71.050781 189.5625 71.050781 C 161.5 71.066406 136.074219 76.796875 117.308594 86.320312 C 107.945312 91.089844 100.210938 96.816406 94.710938 103.410156 C 91.949219 106.722656 89.773438 110.246094 88.257812 113.988281 C 86.753906 117.71875 85.953125 121.65625 85.953125 125.6875 C 85.953125 129.703125 86.753906 133.640625 88.257812 137.386719 C 90.894531 143.933594 95.609375 149.820312 101.808594 155.007812 C 111.125 162.785156 123.847656 169.058594 138.851562 173.441406 C 153.859375 177.828125 171.152344 180.308594 189.5625 180.308594 L 189.5625 176.308594 "/>
<path style=" stroke:none;fill-rule:nonzero;fill:rgb(0%,29.019165%,67.83905%);fill-opacity:1;" d="M 185.566406 225.4375 L 193.558594 225.4375 L 193.558594 25.921875 L 185.566406 25.921875 Z M 185.566406 225.4375 "/>
<path style=" stroke:none;fill-rule:nonzero;fill:rgb(0%,29.019165%,67.83905%);fill-opacity:1;" d="M 89.949219 129.6875 L 289.191406 129.6875 L 289.191406 121.6875 L 89.949219 121.6875 Z M 89.949219 129.6875 "/>
<path style=" stroke:none;fill-rule:nonzero;fill:rgb(0%,29.019165%,67.83905%);fill-opacity:1;" d="M 115.199219 352.109375 L 263.90625 352.109375 L 263.90625 344.105469 L 115.199219 344.105469 Z M 115.199219 352.109375 "/>
</g>
</svg>
