<?xml version="1.0" encoding="UTF-8"?>
<svg xmlns="http://www.w3.org/2000/svg" xmlns:xlink="http://www.w3.org/1999/xlink" width="600pt" height="599.999999pt" viewBox="0 0 600 599.999999" version="1.2">
<defs>
<clipPath id="clip1">
  <path d="M 8 75.230469 L 596 75.230469 L 596 484 L 8 484 Z M 8 75.230469 "/>
</clipPath>
</defs>
<g id="surface1">
<path style=" stroke:none;fill-rule:nonzero;fill:rgb(63.919067%,77.249146%,92.158508%);fill-opacity:1;" d="M 391.332031 461.144531 L 350.003906 419.816406 L 365.808594 419.816406 C 372.839844 419.816406 378.570312 414.085938 378.570312 407.054688 L 378.570312 266.667969 L 404.097656 266.667969 L 404.097656 407.054688 C 404.097656 414.085938 409.828125 419.816406 416.859375 419.816406 L 432.664062 419.816406 Z M 434.605469 164.816406 C 408.183594 119 358.78125 87.992188 301.996094 87.992188 C 226.070312 87.992188 163.253906 143.28125 151.140625 215.765625 C 150.390625 215.765625 149.59375 215.617188 148.847656 215.617188 C 78.402344 215.617188 21.222656 272.800781 21.222656 343.242188 C 21.222656 413.6875 78.402344 470.867188 148.847656 470.867188 L 199.894531 470.867188 L 199.894531 330.480469 C 199.894531 323.449219 194.164062 317.71875 187.132812 317.71875 L 171.332031 317.71875 L 212.660156 276.390625 L 253.988281 317.71875 L 238.183594 317.71875 C 231.15625 317.71875 225.421875 323.449219 225.421875 330.480469 L 225.421875 470.867188 L 429.621094 470.867188 C 438.445312 470.867188 446.96875 470.121094 455.394531 468.722656 C 527.78125 456.460938 582.769531 393.542969 582.769531 317.71875 C 582.769531 234.910156 516.914062 167.507812 434.605469 164.816406 "/>
<g clip-path="url(#clip1)" clip-rule="nonzero">
<path style=" stroke:none;fill-rule:nonzero;fill:rgb(0%,29.019165%,67.83905%);fill-opacity:1;" d="M 148.847656 483.628906 C 155.875 483.628906 161.609375 477.898438 161.609375 470.867188 C 161.609375 463.839844 155.875 458.105469 148.847656 458.105469 C 85.53125 458.105469 33.984375 406.605469 33.984375 343.242188 C 33.984375 279.929688 85.484375 228.429688 149.144531 228.429688 C 149.34375 228.332031 150.691406 228.480469 150.941406 228.480469 C 156.972656 228.578125 162.65625 224.042969 163.703125 217.8125 C 175.070312 150.011719 233.199219 100.753906 301.996094 100.753906 C 351.949219 100.753906 398.511719 127.726562 423.589844 171.199219 C 425.78125 175.035156 429.820312 177.429688 434.207031 177.578125 C 510.382812 180.070312 570.007812 241.589844 570.007812 317.71875 C 570.007812 381.878906 526.636719 437.816406 464.617188 453.71875 C 457.789062 455.460938 453.652344 462.441406 455.394531 469.222656 C 457.140625 476.050781 464.121094 480.191406 470.949219 478.445312 C 544.285156 459.601562 595.535156 393.542969 595.535156 317.71875 C 595.535156 230.125 528.679688 158.785156 442.035156 152.402344 C 411.722656 104.644531 358.679688 75.230469 301.996094 75.230469 C 224.324219 75.230469 158.070312 128.375 140.621094 203.105469 C 67.035156 207.34375 8.457031 268.613281 8.457031 343.242188 C 8.457031 420.664062 71.425781 483.628906 148.847656 483.628906 "/>
</g>
<path style=" stroke:none;fill-rule:nonzero;fill:rgb(0%,29.019165%,67.83905%);fill-opacity:1;" d="M 238.183594 317.71875 C 231.15625 317.71875 225.421875 323.449219 225.421875 330.480469 L 225.421875 470.867188 L 199.894531 470.867188 L 199.894531 330.480469 C 199.894531 323.449219 194.164062 317.71875 187.132812 317.71875 L 171.332031 317.71875 L 212.660156 276.390625 L 253.988281 317.71875 Z M 293.820312 321.40625 L 221.730469 249.320312 C 216.894531 244.484375 208.421875 244.484375 203.585938 249.320312 L 131.496094 321.40625 C 127.808594 325.144531 126.660156 330.628906 128.65625 335.316406 C 130.601562 340.203125 135.335938 343.242188 140.421875 343.242188 L 174.371094 343.242188 L 174.371094 483.628906 C 174.371094 490.660156 180.105469 496.390625 187.132812 496.390625 L 238.183594 496.390625 C 245.214844 496.390625 250.945312 490.660156 250.945312 483.628906 L 250.945312 343.242188 L 284.898438 343.242188 C 289.980469 343.242188 294.71875 340.203125 296.660156 335.316406 C 298.65625 330.628906 297.507812 325.144531 293.820312 321.40625 "/>
<path style=" stroke:none;fill-rule:nonzero;fill:rgb(0%,29.019165%,67.83905%);fill-opacity:1;" d="M 391.332031 461.144531 L 350.003906 419.816406 L 365.808594 419.816406 C 372.839844 419.816406 378.570312 414.085938 378.570312 407.054688 L 378.570312 266.667969 L 404.097656 266.667969 L 404.097656 407.054688 C 404.097656 414.085938 409.828125 419.816406 416.859375 419.816406 L 432.664062 419.816406 Z M 475.335938 402.21875 C 473.394531 397.332031 468.65625 394.292969 463.570312 394.292969 L 429.621094 394.292969 L 429.621094 253.90625 C 429.621094 246.875 423.886719 241.140625 416.859375 241.140625 L 365.808594 241.140625 C 358.78125 241.140625 353.046875 246.875 353.046875 253.90625 L 353.046875 394.292969 L 319.097656 394.292969 C 314.011719 394.292969 309.273438 397.332031 307.332031 402.21875 C 305.335938 406.90625 306.484375 412.390625 310.171875 416.128906 L 382.261719 488.214844 C 384.703125 490.660156 387.894531 492.054688 391.332031 492.054688 C 394.773438 492.054688 397.964844 490.660156 400.40625 488.214844 L 472.496094 416.128906 C 476.183594 412.390625 477.332031 406.90625 475.335938 402.21875 "/>
</g>
</svg>
