<?xml version="1.0" encoding="UTF-8"?>
<svg xmlns="http://www.w3.org/2000/svg" xmlns:xlink="http://www.w3.org/1999/xlink" width="375pt" height="374.999991pt" viewBox="0 0 375 374.999991" version="1.2">
<defs>
<clipPath id="clip1">
  <path d="M 138 8.914062 L 184 8.914062 L 184 54 L 138 54 Z M 138 8.914062 "/>
</clipPath>
<clipPath id="clip2">
  <path d="M 35.257812 42 L 287 42 L 287 365.914062 L 35.257812 365.914062 Z M 35.257812 42 "/>
</clipPath>
<clipPath id="clip3">
  <path d="M 205 232 L 339.757812 232 L 339.757812 365.914062 L 205 365.914062 Z M 205 232 "/>
</clipPath>
</defs>
<g id="surface1">
<path style=" stroke:none;fill-rule:nonzero;fill:rgb(0%,29.019165%,67.83905%);fill-opacity:1;" d="M 205.644531 31.226562 L 194.484375 31.226562 C 194.484375 49.636719 179.414062 64.695312 160.996094 64.695312 C 142.578125 64.695312 127.507812 49.636719 127.507812 31.226562 L 116.347656 31.226562 C 110.207031 31.226562 105.183594 36.246094 105.183594 42.382812 L 105.183594 64.695312 C 105.183594 70.832031 110.207031 75.851562 116.347656 75.851562 L 205.644531 75.851562 C 211.785156 75.851562 216.808594 70.832031 216.808594 64.695312 L 216.808594 42.382812 C 216.808594 36.246094 211.785156 31.226562 205.644531 31.226562 Z M 205.644531 31.226562 "/>
<g clip-path="url(#clip1)" clip-rule="nonzero">
<path style=" stroke:none;fill-rule:nonzero;fill:rgb(0%,29.019165%,67.83905%);fill-opacity:1;" d="M 183.320312 31.226562 C 183.320312 31.957031 183.285156 32.6875 183.210938 33.414062 C 183.140625 34.140625 183.035156 34.863281 182.890625 35.582031 C 182.75 36.296875 182.570312 37.003906 182.359375 37.703125 C 182.148438 38.402344 181.902344 39.089844 181.621094 39.765625 C 181.339844 40.441406 181.027344 41.101562 180.683594 41.746094 C 180.339844 42.390625 179.964844 43.015625 179.558594 43.625 C 179.152344 44.230469 178.714844 44.816406 178.253906 45.382812 C 177.789062 45.945312 177.296875 46.488281 176.78125 47.003906 C 176.265625 47.519531 175.722656 48.011719 175.160156 48.476562 C 174.59375 48.9375 174.007812 49.375 173.398438 49.78125 C 172.789062 50.183594 172.164062 50.5625 171.519531 50.90625 C 170.875 51.25 170.214844 51.5625 169.539062 51.839844 C 168.863281 52.121094 168.175781 52.367188 167.476562 52.578125 C 166.777344 52.792969 166.066406 52.96875 165.351562 53.109375 C 164.632812 53.253906 163.910156 53.359375 163.183594 53.433594 C 162.457031 53.503906 161.726562 53.539062 160.996094 53.539062 C 160.265625 53.539062 159.535156 53.503906 158.808594 53.433594 C 158.078125 53.359375 157.359375 53.253906 156.640625 53.109375 C 155.921875 52.96875 155.214844 52.792969 154.515625 52.578125 C 153.816406 52.367188 153.128906 52.121094 152.453125 51.839844 C 151.777344 51.5625 151.117188 51.25 150.472656 50.90625 C 149.828125 50.5625 149.199219 50.183594 148.59375 49.78125 C 147.984375 49.375 147.398438 48.9375 146.832031 48.476562 C 146.269531 48.011719 145.726562 47.519531 145.210938 47.003906 C 144.691406 46.488281 144.203125 45.945312 143.738281 45.382812 C 143.273438 44.816406 142.839844 44.230469 142.433594 43.625 C 142.027344 43.015625 141.652344 42.390625 141.308594 41.746094 C 140.960938 41.101562 140.652344 40.441406 140.371094 39.765625 C 140.089844 39.089844 139.84375 38.402344 139.632812 37.703125 C 139.421875 37.003906 139.242188 36.296875 139.101562 35.582031 C 138.957031 34.863281 138.851562 34.140625 138.777344 33.414062 C 138.707031 32.6875 138.671875 31.957031 138.671875 31.226562 C 138.671875 30.496094 138.707031 29.769531 138.777344 29.039062 C 138.851562 28.3125 138.957031 27.589844 139.101562 26.875 C 139.242188 26.15625 139.421875 25.449219 139.632812 24.75 C 139.84375 24.050781 140.089844 23.363281 140.371094 22.6875 C 140.652344 22.011719 140.960938 21.355469 141.308594 20.710938 C 141.652344 20.066406 142.027344 19.4375 142.433594 18.832031 C 142.839844 18.222656 143.273438 17.636719 143.738281 17.074219 C 144.203125 16.507812 144.691406 15.964844 145.210938 15.449219 C 145.726562 14.933594 146.269531 14.441406 146.832031 13.980469 C 147.398438 13.515625 147.984375 13.082031 148.59375 12.675781 C 149.199219 12.269531 149.828125 11.894531 150.472656 11.550781 C 151.117188 11.203125 151.777344 10.894531 152.453125 10.613281 C 153.128906 10.332031 153.816406 10.085938 154.515625 9.875 C 155.214844 9.664062 155.921875 9.484375 156.640625 9.34375 C 157.359375 9.199219 158.078125 9.09375 158.808594 9.023438 C 159.535156 8.949219 160.265625 8.914062 160.996094 8.914062 C 161.726562 8.914062 162.457031 8.949219 163.183594 9.023438 C 163.910156 9.09375 164.632812 9.199219 165.351562 9.34375 C 166.066406 9.484375 166.777344 9.664062 167.476562 9.875 C 168.175781 10.085938 168.863281 10.332031 169.539062 10.613281 C 170.214844 10.894531 170.875 11.203125 171.519531 11.550781 C 172.164062 11.894531 172.789062 12.269531 173.398438 12.675781 C 174.007812 13.082031 174.59375 13.515625 175.160156 13.980469 C 175.722656 14.441406 176.265625 14.933594 176.78125 15.449219 C 177.296875 15.964844 177.789062 16.507812 178.253906 17.074219 C 178.714844 17.636719 179.152344 18.222656 179.558594 18.832031 C 179.964844 19.4375 180.339844 20.066406 180.683594 20.710938 C 181.027344 21.355469 181.339844 22.011719 181.621094 22.6875 C 181.902344 23.363281 182.148438 24.050781 182.359375 24.75 C 182.570312 25.449219 182.75 26.15625 182.890625 26.875 C 183.035156 27.589844 183.140625 28.3125 183.210938 29.039062 C 183.285156 29.769531 183.320312 30.496094 183.320312 31.226562 Z M 183.320312 31.226562 "/>
</g>
<path style=" stroke:none;fill-rule:nonzero;fill:rgb(0%,29.019165%,67.83905%);fill-opacity:1;" d="M 91.230469 198.570312 L 113.554688 198.570312 L 113.554688 220.882812 L 91.230469 220.882812 Z M 91.230469 198.570312 "/>
<path style=" stroke:none;fill-rule:nonzero;fill:rgb(0%,29.019165%,67.83905%);fill-opacity:1;" d="M 91.230469 265.507812 L 113.554688 265.507812 L 113.554688 287.820312 L 91.230469 287.820312 Z M 91.230469 265.507812 "/>
<path style=" stroke:none;fill-rule:nonzero;fill:rgb(0%,29.019165%,67.83905%);fill-opacity:1;" d="M 91.230469 131.632812 L 113.554688 131.632812 L 113.554688 153.945312 L 91.230469 153.945312 Z M 91.230469 131.632812 "/>
<g clip-path="url(#clip2)" clip-rule="nonzero">
<path style=" stroke:none;fill-rule:nonzero;fill:rgb(0%,29.019165%,67.83905%);fill-opacity:1;" d="M 183.320312 354.757812 L 183.320312 287.820312 L 158.207031 287.820312 C 152.066406 287.820312 147.042969 282.800781 147.042969 276.664062 C 147.042969 270.527344 152.066406 265.507812 158.207031 265.507812 L 183.320312 265.507812 L 183.320312 243.195312 C 183.320312 234.550781 186.667969 226.742188 191.972656 220.882812 L 158.207031 220.882812 C 152.066406 220.882812 147.042969 215.863281 147.042969 209.726562 C 147.042969 203.589844 152.066406 198.570312 158.207031 198.570312 L 230.761719 198.570312 C 236.898438 198.570312 241.921875 203.589844 241.921875 209.726562 L 286.570312 209.726562 L 286.570312 53.539062 C 286.570312 47.402344 281.546875 42.382812 275.410156 42.382812 L 227.96875 42.382812 L 227.96875 75.851562 C 227.96875 81.988281 222.945312 87.007812 216.808594 87.007812 L 105.183594 87.007812 C 99.046875 87.007812 94.023438 81.988281 94.023438 75.851562 L 94.023438 42.382812 L 46.582031 42.382812 C 40.445312 42.382812 35.421875 47.402344 35.421875 53.539062 L 35.421875 354.757812 C 35.421875 360.894531 40.445312 365.914062 46.582031 365.914062 L 185.273438 365.914062 C 184.15625 362.289062 183.320312 358.664062 183.320312 354.757812 Z M 158.207031 131.632812 L 230.761719 131.632812 C 236.898438 131.632812 241.921875 136.652344 241.921875 142.789062 C 241.921875 148.925781 236.898438 153.945312 230.761719 153.945312 L 158.207031 153.945312 C 152.066406 153.945312 147.042969 148.925781 147.042969 142.789062 C 147.042969 136.652344 152.066406 131.632812 158.207031 131.632812 Z M 124.71875 287.820312 C 124.71875 293.957031 119.695312 298.976562 113.554688 298.976562 L 91.230469 298.976562 C 85.09375 298.976562 80.070312 293.957031 80.070312 287.820312 L 80.070312 265.507812 C 80.070312 259.371094 85.09375 254.351562 91.230469 254.351562 L 113.554688 254.351562 C 119.695312 254.351562 124.71875 259.371094 124.71875 265.507812 Z M 124.71875 220.882812 C 124.71875 227.019531 119.695312 232.039062 113.554688 232.039062 L 91.230469 232.039062 C 85.09375 232.039062 80.070312 227.019531 80.070312 220.882812 L 80.070312 198.570312 C 80.070312 192.433594 85.09375 187.414062 91.230469 187.414062 L 113.554688 187.414062 C 119.695312 187.414062 124.71875 192.433594 124.71875 198.570312 Z M 124.71875 153.945312 C 124.71875 160.082031 119.695312 165.101562 113.554688 165.101562 L 91.230469 165.101562 C 85.09375 165.101562 80.070312 160.082031 80.070312 153.945312 L 80.070312 131.632812 C 80.070312 125.496094 85.09375 120.476562 91.230469 120.476562 L 113.554688 120.476562 C 119.695312 120.476562 124.71875 125.496094 124.71875 131.632812 Z M 124.71875 153.945312 "/>
</g>
<g clip-path="url(#clip3)" clip-rule="nonzero">
<path style=" stroke:none;fill-rule:nonzero;fill:rgb(0%,29.019165%,67.83905%);fill-opacity:1;" d="M 328.429688 232.039062 L 216.808594 232.039062 C 210.667969 232.039062 205.644531 237.058594 205.644531 243.195312 L 205.644531 354.757812 C 205.644531 360.894531 210.667969 365.914062 216.808594 365.914062 L 328.429688 365.914062 C 334.570312 365.914062 339.589844 360.894531 339.589844 354.757812 L 339.589844 243.195312 C 339.589844 237.058594 334.570312 232.039062 328.429688 232.039062 Z M 309.734375 284.472656 C 279.59375 295.074219 269.546875 326.867188 269.546875 327.425781 C 268.152344 331.886719 264.527344 334.957031 259.78125 335.234375 C 259.503906 335.234375 259.222656 335.234375 258.664062 335.234375 C 254.480469 335.234375 250.574219 333.003906 248.621094 329.097656 C 241.085938 314.597656 234.386719 310.414062 234.386719 310.414062 C 228.804688 307.902344 226.296875 301.488281 228.527344 295.628906 C 231.039062 290.050781 237.457031 287.542969 243.316406 289.773438 C 244.710938 290.332031 250.292969 293.121094 256.992188 301.207031 C 265.082031 287.820312 279.316406 271.085938 302.199219 263.277344 C 308.058594 261.324219 314.476562 264.394531 316.429688 270.25 C 318.664062 276.105469 315.59375 282.242188 309.734375 284.472656 Z M 309.734375 284.472656 "/>
</g>
</g>
</svg>
